<?xml version="1.0" encoding="UTF-8" standalone="no"?>
<!DOCTYPE svg PUBLIC "-//W3C//DTD SVG 1.1//EN"
 "http://www.w3.org/Graphics/SVG/1.1/DTD/svg11.dtd">
<!-- Generated by graphviz version 2.43.0 (0)
 -->
<!-- Title: structs Pages: 1 -->
<svg width="814pt" height="1000pt"
 viewBox="0.00 0.00 814.00 1000.00" xmlns="http://www.w3.org/2000/svg" xmlns:xlink="http://www.w3.org/1999/xlink">
<g id="graph0" class="graph" transform="scale(1 1) rotate(0) translate(4 996)">
<title>structs</title>
<polygon fill="white" stroke="transparent" points="-4,4 -4,-996 810,-996 810,4 -4,4"/>
<!-- struct_listes -->
<g id="node1" class="node">
<title>struct_listes</title>
<polygon fill="chartreuse" stroke="transparent" points="309.5,-946 309.5,-988 354.5,-988 354.5,-946 309.5,-946"/>
<polygon fill="none" stroke="black" points="310,-967 310,-988 355,-988 355,-967 310,-967"/>
<text text-anchor="start" x="313" y="-973.8" font-family="Times,serif" font-size="14.00">listes</text>
<polygon fill="none" stroke="black" points="310,-946 310,-967 355,-967 355,-946 310,-946"/>
<text text-anchor="start" x="326" y="-952.8" font-family="Times,serif" font-size="14.00">●</text>
</g>
<!-- struct_140350717549248 -->
<g id="node2" class="node">
<title>struct_140350717549248</title>
<polygon fill="lightgray" stroke="transparent" points="295,-860 295,-902 371,-902 371,-860 295,-860"/>
<polygon fill="none" stroke="black" points="295,-881 295,-902 371,-902 371,-881 295,-881"/>
<text text-anchor="start" x="321.5" y="-888.8" font-family="Times,serif" text-decoration="underline" font-size="14.00">list</text>
<polygon fill="none" stroke="black" points="295,-860 295,-881 314,-881 314,-860 295,-860"/>
<text text-anchor="start" x="298" y="-866.8" font-family="Times,serif" font-size="14.00">●</text>
<polygon fill="none" stroke="black" points="314,-860 314,-881 333,-881 333,-860 314,-860"/>
<text text-anchor="start" x="317" y="-866.8" font-family="Times,serif" font-size="14.00">●</text>
<polygon fill="none" stroke="black" points="333,-860 333,-881 352,-881 352,-860 333,-860"/>
<text text-anchor="start" x="336" y="-866.8" font-family="Times,serif" font-size="14.00">●</text>
<polygon fill="none" stroke="black" points="352,-860 352,-881 371,-881 371,-860 352,-860"/>
<text text-anchor="start" x="355" y="-866.8" font-family="Times,serif" font-size="14.00">●</text>
</g>
<!-- struct_listes&#45;&gt;struct_140350717549248 -->
<g id="edge21" class="edge">
<title>struct_listes:port_listes&#45;&gt;struct_140350717549248</title>
<path fill="none" stroke="black" d="M333,-945C333,-935.7 333,-925.63 333,-916.33"/>
<polygon fill="black" stroke="black" points="336.5,-916.23 333,-906.23 329.5,-916.23 336.5,-916.23"/>
</g>
<!-- struct_140350717535824 -->
<g id="node3" class="node">
<title>struct_140350717535824</title>
<polygon fill="gray" stroke="transparent" points="8,-646 8,-709 194,-709 194,-646 8,-646"/>
<polygon fill="none" stroke="black" points="8,-687.5 8,-708.5 194,-708.5 194,-687.5 8,-687.5"/>
<text text-anchor="start" x="11" y="-695.3" font-family="Times,serif" text-decoration="underline" font-size="14.00">ListeSimplementChainee</text>
<polygon fill="none" stroke="black" points="8,-666.5 8,-687.5 105,-687.5 105,-666.5 8,-666.5"/>
<text text-anchor="start" x="38" y="-673.3" font-family="Times,serif" font-size="14.00">taille</text>
<polygon fill="none" stroke="black" points="105,-666.5 105,-687.5 194,-687.5 194,-666.5 105,-666.5"/>
<text text-anchor="start" x="135" y="-673.3" font-family="Times,serif" font-size="14.00">tete</text>
<polygon fill="none" stroke="black" points="8,-645.5 8,-666.5 105,-666.5 105,-645.5 8,-645.5"/>
<text text-anchor="start" x="51.5" y="-652.3" font-family="Times,serif" font-size="14.00">2</text>
<polygon fill="none" stroke="black" points="105,-645.5 105,-666.5 194,-666.5 194,-645.5 105,-645.5"/>
<text text-anchor="start" x="143" y="-652.3" font-family="Times,serif" font-size="14.00">●</text>
</g>
<!-- struct_140350717549248&#45;&gt;struct_140350717535824 -->
<g id="edge3" class="edge">
<title>struct_140350717549248:port_child0&#45;&gt;struct_140350717535824</title>
<path fill="none" stroke="black" d="M294,-870C210.61,-870 150.4,-778.8 121.09,-722.28"/>
<polygon fill="black" stroke="black" points="124.13,-720.52 116.49,-713.18 117.88,-723.68 124.13,-720.52"/>
</g>
<!-- struct_140350717536208 -->
<g id="node6" class="node">
<title>struct_140350717536208</title>
<polygon fill="gray" stroke="transparent" points="154,-539 154,-602 340,-602 340,-539 154,-539"/>
<polygon fill="none" stroke="black" points="154,-580.5 154,-601.5 340,-601.5 340,-580.5 154,-580.5"/>
<text text-anchor="start" x="157" y="-588.3" font-family="Times,serif" text-decoration="underline" font-size="14.00">ListeSimplementChainee</text>
<polygon fill="none" stroke="black" points="154,-559.5 154,-580.5 251,-580.5 251,-559.5 154,-559.5"/>
<text text-anchor="start" x="184" y="-566.3" font-family="Times,serif" font-size="14.00">taille</text>
<polygon fill="none" stroke="black" points="251,-559.5 251,-580.5 340,-580.5 340,-559.5 251,-559.5"/>
<text text-anchor="start" x="281" y="-566.3" font-family="Times,serif" font-size="14.00">tete</text>
<polygon fill="none" stroke="black" points="154,-538.5 154,-559.5 251,-559.5 251,-538.5 154,-538.5"/>
<text text-anchor="start" x="197.5" y="-545.3" font-family="Times,serif" font-size="14.00">5</text>
<polygon fill="none" stroke="black" points="251,-538.5 251,-559.5 340,-559.5 340,-538.5 251,-538.5"/>
<text text-anchor="start" x="289" y="-545.3" font-family="Times,serif" font-size="14.00">●</text>
</g>
<!-- struct_140350717549248&#45;&gt;struct_140350717536208 -->
<g id="edge9" class="edge">
<title>struct_140350717549248:port_child1&#45;&gt;struct_140350717536208</title>
<path fill="none" stroke="black" d="M323,-859C323,-839.31 308.86,-838.45 302,-820 276.36,-751.03 260.81,-666.64 253.06,-616.07"/>
<polygon fill="black" stroke="black" points="256.52,-615.49 251.57,-606.12 249.59,-616.53 256.52,-615.49"/>
</g>
<!-- struct_140350717526464 -->
<g id="node12" class="node">
<title>struct_140350717526464</title>
<polygon fill="gray" stroke="transparent" points="319,-753 319,-816 505,-816 505,-753 319,-753"/>
<polygon fill="none" stroke="black" points="319,-794.5 319,-815.5 505,-815.5 505,-794.5 319,-794.5"/>
<text text-anchor="start" x="322" y="-802.3" font-family="Times,serif" text-decoration="underline" font-size="14.00">ListeSimplementChainee</text>
<polygon fill="none" stroke="black" points="319,-773.5 319,-794.5 416,-794.5 416,-773.5 319,-773.5"/>
<text text-anchor="start" x="349" y="-780.3" font-family="Times,serif" font-size="14.00">taille</text>
<polygon fill="none" stroke="black" points="416,-773.5 416,-794.5 505,-794.5 505,-773.5 416,-773.5"/>
<text text-anchor="start" x="446" y="-780.3" font-family="Times,serif" font-size="14.00">tete</text>
<polygon fill="none" stroke="black" points="319,-752.5 319,-773.5 416,-773.5 416,-752.5 319,-752.5"/>
<text text-anchor="start" x="362.5" y="-759.3" font-family="Times,serif" font-size="14.00">7</text>
<polygon fill="none" stroke="black" points="416,-752.5 416,-773.5 505,-773.5 505,-752.5 416,-752.5"/>
<text text-anchor="start" x="454" y="-759.3" font-family="Times,serif" font-size="14.00">●</text>
</g>
<!-- struct_140350717549248&#45;&gt;struct_140350717526464 -->
<g id="edge13" class="edge">
<title>struct_140350717549248:port_child2&#45;&gt;struct_140350717526464</title>
<path fill="none" stroke="black" d="M343,-859C343,-847.49 347.55,-837.05 354.31,-827.88"/>
<polygon fill="black" stroke="black" points="357.04,-830.08 360.77,-820.16 351.67,-825.59 357.04,-830.08"/>
</g>
<!-- struct_140350717528288 -->
<g id="node15" class="node">
<title>struct_140350717528288</title>
<polygon fill="gray" stroke="transparent" points="550,-753 550,-816 736,-816 736,-753 550,-753"/>
<polygon fill="none" stroke="black" points="550,-794.5 550,-815.5 736,-815.5 736,-794.5 550,-794.5"/>
<text text-anchor="start" x="553" y="-802.3" font-family="Times,serif" text-decoration="underline" font-size="14.00">ListeSimplementChainee</text>
<polygon fill="none" stroke="black" points="550,-773.5 550,-794.5 647,-794.5 647,-773.5 550,-773.5"/>
<text text-anchor="start" x="580" y="-780.3" font-family="Times,serif" font-size="14.00">taille</text>
<polygon fill="none" stroke="black" points="647,-773.5 647,-794.5 736,-794.5 736,-773.5 647,-773.5"/>
<text text-anchor="start" x="677" y="-780.3" font-family="Times,serif" font-size="14.00">tete</text>
<polygon fill="none" stroke="black" points="550,-752.5 550,-773.5 647,-773.5 647,-752.5 550,-752.5"/>
<text text-anchor="start" x="593.5" y="-759.3" font-family="Times,serif" font-size="14.00">7</text>
<polygon fill="none" stroke="black" points="647,-752.5 647,-773.5 736,-773.5 736,-752.5 647,-752.5"/>
<text text-anchor="start" x="685" y="-759.3" font-family="Times,serif" font-size="14.00">●</text>
</g>
<!-- struct_140350717549248&#45;&gt;struct_140350717528288 -->
<g id="edge20" class="edge">
<title>struct_140350717549248:port_child3&#45;&gt;struct_140350717528288</title>
<path fill="none" stroke="black" d="M372,-870C438.72,-870 510.65,-846.37 563.63,-824.1"/>
<polygon fill="black" stroke="black" points="565.15,-827.26 572.96,-820.11 562.39,-820.83 565.15,-827.26"/>
</g>
<!-- struct_140350717527616 -->
<g id="node4" class="node">
<title>struct_140350717527616</title>
<polygon fill="gray" stroke="transparent" points="82,-111 82,-174 272,-174 272,-111 82,-111"/>
<polygon fill="none" stroke="black" points="82,-152.5 82,-173.5 272,-173.5 272,-152.5 82,-152.5"/>
<text text-anchor="start" x="152" y="-160.3" font-family="Times,serif" text-decoration="underline" font-size="14.00">Cellule</text>
<polygon fill="none" stroke="black" points="82,-131.5 82,-152.5 134,-152.5 134,-131.5 82,-131.5"/>
<text text-anchor="start" x="85" y="-138.3" font-family="Times,serif" font-size="14.00">valeur</text>
<polygon fill="none" stroke="black" points="134,-131.5 134,-152.5 193,-152.5 193,-131.5 134,-131.5"/>
<text text-anchor="start" x="137" y="-138.3" font-family="Times,serif" font-size="14.00">suivant</text>
<polygon fill="none" stroke="black" points="193,-131.5 193,-152.5 272,-152.5 272,-131.5 193,-131.5"/>
<text text-anchor="start" x="196" y="-138.3" font-family="Times,serif" font-size="14.00">utilisation</text>
<polygon fill="none" stroke="black" points="82,-110.5 82,-131.5 134,-131.5 134,-110.5 82,-110.5"/>
<text text-anchor="start" x="96" y="-117.3" font-family="Times,serif" font-size="14.00">&quot;S&quot;</text>
<polygon fill="none" stroke="black" points="134,-110.5 134,-131.5 193,-131.5 193,-110.5 134,-110.5"/>
<text text-anchor="start" x="157" y="-117.3" font-family="Times,serif" font-size="14.00">●</text>
<polygon fill="none" stroke="black" points="193,-110.5 193,-131.5 272,-131.5 272,-110.5 193,-110.5"/>
<text text-anchor="start" x="227.5" y="-117.3" font-family="Times,serif" font-size="14.00">3</text>
</g>
<!-- struct_140350717535824&#45;&gt;struct_140350717527616 -->
<g id="edge2" class="edge">
<title>struct_140350717535824:port_child0&#45;&gt;struct_140350717527616</title>
<path fill="none" stroke="black" d="M150,-644.5C150,-626.44 141.11,-623.59 137,-606 122.56,-544.21 118,-527.95 118,-464.5 118,-464.5 118,-464.5 118,-355.5 118,-292.05 116.75,-274.14 137,-214 140.07,-204.89 144.34,-195.63 148.96,-186.94"/>
<polygon fill="black" stroke="black" points="152.07,-188.56 153.87,-178.12 145.95,-185.16 152.07,-188.56"/>
</g>
<!-- struct_140350717530688 -->
<g id="node5" class="node">
<title>struct_140350717530688</title>
<polygon fill="gray" stroke="transparent" points="68,-4 68,-67 258,-67 258,-4 68,-4"/>
<polygon fill="none" stroke="black" points="68,-45.5 68,-66.5 258,-66.5 258,-45.5 68,-45.5"/>
<text text-anchor="start" x="138" y="-53.3" font-family="Times,serif" text-decoration="underline" font-size="14.00">Cellule</text>
<polygon fill="none" stroke="black" points="68,-24.5 68,-45.5 120,-45.5 120,-24.5 68,-24.5"/>
<text text-anchor="start" x="71" y="-31.3" font-family="Times,serif" font-size="14.00">valeur</text>
<polygon fill="none" stroke="black" points="120,-24.5 120,-45.5 179,-45.5 179,-24.5 120,-24.5"/>
<text text-anchor="start" x="123" y="-31.3" font-family="Times,serif" font-size="14.00">suivant</text>
<polygon fill="none" stroke="black" points="179,-24.5 179,-45.5 258,-45.5 258,-24.5 179,-24.5"/>
<text text-anchor="start" x="182" y="-31.3" font-family="Times,serif" font-size="14.00">utilisation</text>
<polygon fill="none" stroke="black" points="68,-3.5 68,-24.5 120,-24.5 120,-3.5 68,-3.5"/>
<text text-anchor="start" x="81.5" y="-10.3" font-family="Times,serif" font-size="14.00">&quot;E&quot;</text>
<polygon fill="none" stroke="black" points="120,-3.5 120,-24.5 179,-24.5 179,-3.5 120,-3.5"/>
<text text-anchor="start" x="130.5" y="-10.3" font-family="Times,serif" font-size="14.00">None</text>
<polygon fill="none" stroke="black" points="179,-3.5 179,-24.5 258,-24.5 258,-3.5 179,-3.5"/>
<text text-anchor="start" x="213.5" y="-10.3" font-family="Times,serif" font-size="14.00">1</text>
</g>
<!-- struct_140350717527616&#45;&gt;struct_140350717530688 -->
<g id="edge1" class="edge">
<title>struct_140350717527616:port_child0&#45;&gt;struct_140350717530688</title>
<path fill="none" stroke="black" d="M163,-109.5C163,-100.38 163,-90.63 163,-81.31"/>
<polygon fill="black" stroke="black" points="166.5,-81.03 163,-71.03 159.5,-81.03 166.5,-81.03"/>
</g>
<!-- struct_140350717527952 -->
<g id="node7" class="node">
<title>struct_140350717527952</title>
<polygon fill="gray" stroke="transparent" points="360,-432 360,-495 550,-495 550,-432 360,-432"/>
<polygon fill="none" stroke="black" points="360,-473.5 360,-494.5 550,-494.5 550,-473.5 360,-473.5"/>
<text text-anchor="start" x="430" y="-481.3" font-family="Times,serif" text-decoration="underline" font-size="14.00">Cellule</text>
<polygon fill="none" stroke="black" points="360,-452.5 360,-473.5 412,-473.5 412,-452.5 360,-452.5"/>
<text text-anchor="start" x="363" y="-459.3" font-family="Times,serif" font-size="14.00">valeur</text>
<polygon fill="none" stroke="black" points="412,-452.5 412,-473.5 471,-473.5 471,-452.5 412,-452.5"/>
<text text-anchor="start" x="415" y="-459.3" font-family="Times,serif" font-size="14.00">suivant</text>
<polygon fill="none" stroke="black" points="471,-452.5 471,-473.5 550,-473.5 550,-452.5 471,-452.5"/>
<text text-anchor="start" x="474" y="-459.3" font-family="Times,serif" font-size="14.00">utilisation</text>
<polygon fill="none" stroke="black" points="360,-431.5 360,-452.5 412,-452.5 412,-431.5 360,-431.5"/>
<text text-anchor="start" x="374" y="-438.3" font-family="Times,serif" font-size="14.00">&quot;P&quot;</text>
<polygon fill="none" stroke="black" points="412,-431.5 412,-452.5 471,-452.5 471,-431.5 412,-431.5"/>
<text text-anchor="start" x="435" y="-438.3" font-family="Times,serif" font-size="14.00">●</text>
<polygon fill="none" stroke="black" points="471,-431.5 471,-452.5 550,-452.5 550,-431.5 471,-431.5"/>
<text text-anchor="start" x="505.5" y="-438.3" font-family="Times,serif" font-size="14.00">2</text>
</g>
<!-- struct_140350717536208&#45;&gt;struct_140350717527952 -->
<g id="edge8" class="edge">
<title>struct_140350717536208:port_child0&#45;&gt;struct_140350717527952</title>
<path fill="none" stroke="black" d="M341,-548.5C350.3,-548.5 349.66,-540.72 357,-535 369.8,-525.02 383.82,-514.63 397.15,-504.99"/>
<polygon fill="black" stroke="black" points="399.28,-507.77 405.35,-499.09 395.19,-502.09 399.28,-507.77"/>
</g>
<!-- struct_140350717528192 -->
<g id="node8" class="node">
<title>struct_140350717528192</title>
<polygon fill="gray" stroke="transparent" points="346,-325 346,-388 536,-388 536,-325 346,-325"/>
<polygon fill="none" stroke="black" points="346,-366.5 346,-387.5 536,-387.5 536,-366.5 346,-366.5"/>
<text text-anchor="start" x="416" y="-374.3" font-family="Times,serif" text-decoration="underline" font-size="14.00">Cellule</text>
<polygon fill="none" stroke="black" points="346,-345.5 346,-366.5 398,-366.5 398,-345.5 346,-345.5"/>
<text text-anchor="start" x="349" y="-352.3" font-family="Times,serif" font-size="14.00">valeur</text>
<polygon fill="none" stroke="black" points="398,-345.5 398,-366.5 457,-366.5 457,-345.5 398,-345.5"/>
<text text-anchor="start" x="401" y="-352.3" font-family="Times,serif" font-size="14.00">suivant</text>
<polygon fill="none" stroke="black" points="457,-345.5 457,-366.5 536,-366.5 536,-345.5 457,-345.5"/>
<text text-anchor="start" x="460" y="-352.3" font-family="Times,serif" font-size="14.00">utilisation</text>
<polygon fill="none" stroke="black" points="346,-324.5 346,-345.5 398,-345.5 398,-324.5 346,-324.5"/>
<text text-anchor="start" x="360" y="-331.3" font-family="Times,serif" font-size="14.00">&quot;A&quot;</text>
<polygon fill="none" stroke="black" points="398,-324.5 398,-345.5 457,-345.5 457,-324.5 398,-324.5"/>
<text text-anchor="start" x="421" y="-331.3" font-family="Times,serif" font-size="14.00">●</text>
<polygon fill="none" stroke="black" points="457,-324.5 457,-345.5 536,-345.5 536,-324.5 457,-324.5"/>
<text text-anchor="start" x="491.5" y="-331.3" font-family="Times,serif" font-size="14.00">1</text>
</g>
<!-- struct_140350717527952&#45;&gt;struct_140350717528192 -->
<g id="edge7" class="edge">
<title>struct_140350717527952:port_child0&#45;&gt;struct_140350717528192</title>
<path fill="none" stroke="black" d="M441,-430.5C441,-421.38 441,-411.63 441,-402.31"/>
<polygon fill="black" stroke="black" points="444.5,-402.03 441,-392.03 437.5,-402.03 444.5,-402.03"/>
</g>
<!-- struct_140350717526512 -->
<g id="node9" class="node">
<title>struct_140350717526512</title>
<polygon fill="gray" stroke="transparent" points="378,-218 378,-281 568,-281 568,-218 378,-218"/>
<polygon fill="none" stroke="black" points="378,-259.5 378,-280.5 568,-280.5 568,-259.5 378,-259.5"/>
<text text-anchor="start" x="448" y="-267.3" font-family="Times,serif" text-decoration="underline" font-size="14.00">Cellule</text>
<polygon fill="none" stroke="black" points="378,-238.5 378,-259.5 430,-259.5 430,-238.5 378,-238.5"/>
<text text-anchor="start" x="381" y="-245.3" font-family="Times,serif" font-size="14.00">valeur</text>
<polygon fill="none" stroke="black" points="430,-238.5 430,-259.5 489,-259.5 489,-238.5 430,-238.5"/>
<text text-anchor="start" x="433" y="-245.3" font-family="Times,serif" font-size="14.00">suivant</text>
<polygon fill="none" stroke="black" points="489,-238.5 489,-259.5 568,-259.5 568,-238.5 489,-238.5"/>
<text text-anchor="start" x="492" y="-245.3" font-family="Times,serif" font-size="14.00">utilisation</text>
<polygon fill="none" stroke="black" points="378,-217.5 378,-238.5 430,-238.5 430,-217.5 378,-217.5"/>
<text text-anchor="start" x="392" y="-224.3" font-family="Times,serif" font-size="14.00">&quot;S&quot;</text>
<polygon fill="none" stroke="black" points="430,-217.5 430,-238.5 489,-238.5 489,-217.5 430,-217.5"/>
<text text-anchor="start" x="453" y="-224.3" font-family="Times,serif" font-size="14.00">●</text>
<polygon fill="none" stroke="black" points="489,-217.5 489,-238.5 568,-238.5 568,-217.5 489,-217.5"/>
<text text-anchor="start" x="523.5" y="-224.3" font-family="Times,serif" font-size="14.00">1</text>
</g>
<!-- struct_140350717528192&#45;&gt;struct_140350717526512 -->
<g id="edge6" class="edge">
<title>struct_140350717528192:port_child0&#45;&gt;struct_140350717526512</title>
<path fill="none" stroke="black" d="M427,-323.5C427,-313.06 430.41,-302.89 435.38,-293.62"/>
<polygon fill="black" stroke="black" points="438.39,-295.4 440.55,-285.02 432.39,-291.78 438.39,-295.4"/>
</g>
<!-- struct_140350717529248 -->
<g id="node10" class="node">
<title>struct_140350717529248</title>
<polygon fill="gray" stroke="transparent" points="364,-111 364,-174 554,-174 554,-111 364,-111"/>
<polygon fill="none" stroke="black" points="364,-152.5 364,-173.5 554,-173.5 554,-152.5 364,-152.5"/>
<text text-anchor="start" x="434" y="-160.3" font-family="Times,serif" text-decoration="underline" font-size="14.00">Cellule</text>
<polygon fill="none" stroke="black" points="364,-131.5 364,-152.5 416,-152.5 416,-131.5 364,-131.5"/>
<text text-anchor="start" x="367" y="-138.3" font-family="Times,serif" font-size="14.00">valeur</text>
<polygon fill="none" stroke="black" points="416,-131.5 416,-152.5 475,-152.5 475,-131.5 416,-131.5"/>
<text text-anchor="start" x="419" y="-138.3" font-family="Times,serif" font-size="14.00">suivant</text>
<polygon fill="none" stroke="black" points="475,-131.5 475,-152.5 554,-152.5 554,-131.5 475,-131.5"/>
<text text-anchor="start" x="478" y="-138.3" font-family="Times,serif" font-size="14.00">utilisation</text>
<polygon fill="none" stroke="black" points="364,-110.5 364,-131.5 416,-131.5 416,-110.5 364,-110.5"/>
<text text-anchor="start" x="378" y="-117.3" font-family="Times,serif" font-size="14.00">&quot;S&quot;</text>
<polygon fill="none" stroke="black" points="416,-110.5 416,-131.5 475,-131.5 475,-110.5 416,-110.5"/>
<text text-anchor="start" x="439" y="-117.3" font-family="Times,serif" font-size="14.00">●</text>
<polygon fill="none" stroke="black" points="475,-110.5 475,-131.5 554,-131.5 554,-110.5 475,-110.5"/>
<text text-anchor="start" x="509.5" y="-117.3" font-family="Times,serif" font-size="14.00">2</text>
</g>
<!-- struct_140350717526512&#45;&gt;struct_140350717529248 -->
<g id="edge5" class="edge">
<title>struct_140350717526512:port_child0&#45;&gt;struct_140350717529248</title>
<path fill="none" stroke="black" d="M459,-216.5C459,-207.38 459,-197.63 459,-188.31"/>
<polygon fill="black" stroke="black" points="462.5,-188.03 459,-178.03 455.5,-188.03 462.5,-188.03"/>
</g>
<!-- struct_140350717529152 -->
<g id="node11" class="node">
<title>struct_140350717529152</title>
<polygon fill="gray" stroke="transparent" points="350,-4 350,-67 540,-67 540,-4 350,-4"/>
<polygon fill="none" stroke="black" points="350,-45.5 350,-66.5 540,-66.5 540,-45.5 350,-45.5"/>
<text text-anchor="start" x="420" y="-53.3" font-family="Times,serif" text-decoration="underline" font-size="14.00">Cellule</text>
<polygon fill="none" stroke="black" points="350,-24.5 350,-45.5 402,-45.5 402,-24.5 350,-24.5"/>
<text text-anchor="start" x="353" y="-31.3" font-family="Times,serif" font-size="14.00">valeur</text>
<polygon fill="none" stroke="black" points="402,-24.5 402,-45.5 461,-45.5 461,-24.5 402,-24.5"/>
<text text-anchor="start" x="405" y="-31.3" font-family="Times,serif" font-size="14.00">suivant</text>
<polygon fill="none" stroke="black" points="461,-24.5 461,-45.5 540,-45.5 540,-24.5 461,-24.5"/>
<text text-anchor="start" x="464" y="-31.3" font-family="Times,serif" font-size="14.00">utilisation</text>
<polygon fill="none" stroke="black" points="350,-3.5 350,-24.5 402,-24.5 402,-3.5 350,-3.5"/>
<text text-anchor="start" x="363.5" y="-10.3" font-family="Times,serif" font-size="14.00">&quot;E&quot;</text>
<polygon fill="none" stroke="black" points="402,-3.5 402,-24.5 461,-24.5 461,-3.5 402,-3.5"/>
<text text-anchor="start" x="412.5" y="-10.3" font-family="Times,serif" font-size="14.00">None</text>
<polygon fill="none" stroke="black" points="461,-3.5 461,-24.5 540,-24.5 540,-3.5 461,-3.5"/>
<text text-anchor="start" x="495.5" y="-10.3" font-family="Times,serif" font-size="14.00">1</text>
</g>
<!-- struct_140350717529248&#45;&gt;struct_140350717529152 -->
<g id="edge4" class="edge">
<title>struct_140350717529248:port_child0&#45;&gt;struct_140350717529152</title>
<path fill="none" stroke="black" d="M445,-109.5C445,-100.38 445,-90.63 445,-81.31"/>
<polygon fill="black" stroke="black" points="448.5,-81.03 445,-71.03 441.5,-81.03 448.5,-81.03"/>
</g>
<!-- struct_140350717530064 -->
<g id="node13" class="node">
<title>struct_140350717530064</title>
<polygon fill="gray" stroke="transparent" points="380,-646 380,-709 570,-709 570,-646 380,-646"/>
<polygon fill="none" stroke="black" points="380,-687.5 380,-708.5 570,-708.5 570,-687.5 380,-687.5"/>
<text text-anchor="start" x="450" y="-695.3" font-family="Times,serif" text-decoration="underline" font-size="14.00">Cellule</text>
<polygon fill="none" stroke="black" points="380,-666.5 380,-687.5 432,-687.5 432,-666.5 380,-666.5"/>
<text text-anchor="start" x="383" y="-673.3" font-family="Times,serif" font-size="14.00">valeur</text>
<polygon fill="none" stroke="black" points="432,-666.5 432,-687.5 491,-687.5 491,-666.5 432,-666.5"/>
<text text-anchor="start" x="435" y="-673.3" font-family="Times,serif" font-size="14.00">suivant</text>
<polygon fill="none" stroke="black" points="491,-666.5 491,-687.5 570,-687.5 570,-666.5 491,-666.5"/>
<text text-anchor="start" x="494" y="-673.3" font-family="Times,serif" font-size="14.00">utilisation</text>
<polygon fill="none" stroke="black" points="380,-645.5 380,-666.5 432,-666.5 432,-645.5 380,-645.5"/>
<text text-anchor="start" x="393.5" y="-652.3" font-family="Times,serif" font-size="14.00">&quot;D&quot;</text>
<polygon fill="none" stroke="black" points="432,-645.5 432,-666.5 491,-666.5 491,-645.5 432,-645.5"/>
<text text-anchor="start" x="455" y="-652.3" font-family="Times,serif" font-size="14.00">●</text>
<polygon fill="none" stroke="black" points="491,-645.5 491,-666.5 570,-666.5 570,-645.5 491,-645.5"/>
<text text-anchor="start" x="525.5" y="-652.3" font-family="Times,serif" font-size="14.00">1</text>
</g>
<!-- struct_140350717526464&#45;&gt;struct_140350717530064 -->
<g id="edge12" class="edge">
<title>struct_140350717526464:port_child0&#45;&gt;struct_140350717530064</title>
<path fill="none" stroke="black" d="M461,-751.5C461,-742.21 462.11,-732.38 463.7,-723.04"/>
<polygon fill="black" stroke="black" points="467.15,-723.62 465.58,-713.15 460.27,-722.31 467.15,-723.62"/>
</g>
<!-- struct_140350717528432 -->
<g id="node14" class="node">
<title>struct_140350717528432</title>
<polygon fill="gray" stroke="transparent" points="374,-539 374,-602 564,-602 564,-539 374,-539"/>
<polygon fill="none" stroke="black" points="374,-580.5 374,-601.5 564,-601.5 564,-580.5 374,-580.5"/>
<text text-anchor="start" x="444" y="-588.3" font-family="Times,serif" text-decoration="underline" font-size="14.00">Cellule</text>
<polygon fill="none" stroke="black" points="374,-559.5 374,-580.5 426,-580.5 426,-559.5 374,-559.5"/>
<text text-anchor="start" x="377" y="-566.3" font-family="Times,serif" font-size="14.00">valeur</text>
<polygon fill="none" stroke="black" points="426,-559.5 426,-580.5 485,-580.5 485,-559.5 426,-559.5"/>
<text text-anchor="start" x="429" y="-566.3" font-family="Times,serif" font-size="14.00">suivant</text>
<polygon fill="none" stroke="black" points="485,-559.5 485,-580.5 564,-580.5 564,-559.5 485,-559.5"/>
<text text-anchor="start" x="488" y="-566.3" font-family="Times,serif" font-size="14.00">utilisation</text>
<polygon fill="none" stroke="black" points="374,-538.5 374,-559.5 426,-559.5 426,-538.5 374,-538.5"/>
<text text-anchor="start" x="387.5" y="-545.3" font-family="Times,serif" font-size="14.00">&quot;E&quot;</text>
<polygon fill="none" stroke="black" points="426,-538.5 426,-559.5 485,-559.5 485,-538.5 426,-538.5"/>
<text text-anchor="start" x="449" y="-545.3" font-family="Times,serif" font-size="14.00">●</text>
<polygon fill="none" stroke="black" points="485,-538.5 485,-559.5 564,-559.5 564,-538.5 485,-538.5"/>
<text text-anchor="start" x="519.5" y="-545.3" font-family="Times,serif" font-size="14.00">1</text>
</g>
<!-- struct_140350717530064&#45;&gt;struct_140350717528432 -->
<g id="edge11" class="edge">
<title>struct_140350717530064:port_child0&#45;&gt;struct_140350717528432</title>
<path fill="none" stroke="black" d="M461,-644.5C461,-635.42 461.62,-625.75 462.51,-616.51"/>
<polygon fill="black" stroke="black" points="466.02,-616.64 463.62,-606.32 459.06,-615.88 466.02,-616.64"/>
</g>
<!-- struct_140350717528432&#45;&gt;struct_140350717527952 -->
<g id="edge10" class="edge">
<title>struct_140350717528432:port_child0&#45;&gt;struct_140350717527952</title>
<path fill="none" stroke="black" d="M455,-537.5C455,-528.38 455,-518.63 455,-509.31"/>
<polygon fill="black" stroke="black" points="458.5,-509.03 455,-499.03 451.5,-509.03 458.5,-509.03"/>
</g>
<!-- struct_140350717529392 -->
<g id="node16" class="node">
<title>struct_140350717529392</title>
<polygon fill="gray" stroke="transparent" points="608,-646 608,-709 798,-709 798,-646 608,-646"/>
<polygon fill="none" stroke="black" points="608,-687.5 608,-708.5 798,-708.5 798,-687.5 608,-687.5"/>
<text text-anchor="start" x="678" y="-695.3" font-family="Times,serif" text-decoration="underline" font-size="14.00">Cellule</text>
<polygon fill="none" stroke="black" points="608,-666.5 608,-687.5 660,-687.5 660,-666.5 608,-666.5"/>
<text text-anchor="start" x="611" y="-673.3" font-family="Times,serif" font-size="14.00">valeur</text>
<polygon fill="none" stroke="black" points="660,-666.5 660,-687.5 719,-687.5 719,-666.5 660,-666.5"/>
<text text-anchor="start" x="663" y="-673.3" font-family="Times,serif" font-size="14.00">suivant</text>
<polygon fill="none" stroke="black" points="719,-666.5 719,-687.5 798,-687.5 798,-666.5 719,-666.5"/>
<text text-anchor="start" x="722" y="-673.3" font-family="Times,serif" font-size="14.00">utilisation</text>
<polygon fill="none" stroke="black" points="608,-645.5 608,-666.5 660,-666.5 660,-645.5 608,-645.5"/>
<text text-anchor="start" x="621.5" y="-652.3" font-family="Times,serif" font-size="14.00">&quot;D&quot;</text>
<polygon fill="none" stroke="black" points="660,-645.5 660,-666.5 719,-666.5 719,-645.5 660,-645.5"/>
<text text-anchor="start" x="683" y="-652.3" font-family="Times,serif" font-size="14.00">●</text>
<polygon fill="none" stroke="black" points="719,-645.5 719,-666.5 798,-666.5 798,-645.5 719,-645.5"/>
<text text-anchor="start" x="753.5" y="-652.3" font-family="Times,serif" font-size="14.00">1</text>
</g>
<!-- struct_140350717528288&#45;&gt;struct_140350717529392 -->
<g id="edge19" class="edge">
<title>struct_140350717528288:port_child0&#45;&gt;struct_140350717529392</title>
<path fill="none" stroke="black" d="M692,-751.5C692,-742.28 692.87,-732.47 694.12,-723.14"/>
<polygon fill="black" stroke="black" points="697.58,-723.65 695.6,-713.24 690.66,-722.61 697.58,-723.65"/>
</g>
<!-- struct_140350717529488 -->
<g id="node17" class="node">
<title>struct_140350717529488</title>
<polygon fill="gray" stroke="transparent" points="598,-539 598,-602 788,-602 788,-539 598,-539"/>
<polygon fill="none" stroke="black" points="598,-580.5 598,-601.5 788,-601.5 788,-580.5 598,-580.5"/>
<text text-anchor="start" x="668" y="-588.3" font-family="Times,serif" text-decoration="underline" font-size="14.00">Cellule</text>
<polygon fill="none" stroke="black" points="598,-559.5 598,-580.5 650,-580.5 650,-559.5 598,-559.5"/>
<text text-anchor="start" x="601" y="-566.3" font-family="Times,serif" font-size="14.00">valeur</text>
<polygon fill="none" stroke="black" points="650,-559.5 650,-580.5 709,-580.5 709,-559.5 650,-559.5"/>
<text text-anchor="start" x="653" y="-566.3" font-family="Times,serif" font-size="14.00">suivant</text>
<polygon fill="none" stroke="black" points="709,-559.5 709,-580.5 788,-580.5 788,-559.5 709,-559.5"/>
<text text-anchor="start" x="712" y="-566.3" font-family="Times,serif" font-size="14.00">utilisation</text>
<polygon fill="none" stroke="black" points="598,-538.5 598,-559.5 650,-559.5 650,-538.5 598,-538.5"/>
<text text-anchor="start" x="611.5" y="-545.3" font-family="Times,serif" font-size="14.00">&quot;E&quot;</text>
<polygon fill="none" stroke="black" points="650,-538.5 650,-559.5 709,-559.5 709,-538.5 650,-538.5"/>
<text text-anchor="start" x="673" y="-545.3" font-family="Times,serif" font-size="14.00">●</text>
<polygon fill="none" stroke="black" points="709,-538.5 709,-559.5 788,-559.5 788,-538.5 709,-538.5"/>
<text text-anchor="start" x="743.5" y="-545.3" font-family="Times,serif" font-size="14.00">1</text>
</g>
<!-- struct_140350717529392&#45;&gt;struct_140350717529488 -->
<g id="edge18" class="edge">
<title>struct_140350717529392:port_child0&#45;&gt;struct_140350717529488</title>
<path fill="none" stroke="black" d="M689,-644.5C689,-635.37 689.32,-625.61 689.77,-616.29"/>
<polygon fill="black" stroke="black" points="693.28,-616.19 690.33,-606.01 686.29,-615.81 693.28,-616.19"/>
</g>
<!-- struct_140350717529584 -->
<g id="node18" class="node">
<title>struct_140350717529584</title>
<polygon fill="gray" stroke="transparent" points="584,-432 584,-495 774,-495 774,-432 584,-432"/>
<polygon fill="none" stroke="black" points="584,-473.5 584,-494.5 774,-494.5 774,-473.5 584,-473.5"/>
<text text-anchor="start" x="654" y="-481.3" font-family="Times,serif" text-decoration="underline" font-size="14.00">Cellule</text>
<polygon fill="none" stroke="black" points="584,-452.5 584,-473.5 636,-473.5 636,-452.5 584,-452.5"/>
<text text-anchor="start" x="587" y="-459.3" font-family="Times,serif" font-size="14.00">valeur</text>
<polygon fill="none" stroke="black" points="636,-452.5 636,-473.5 695,-473.5 695,-452.5 636,-452.5"/>
<text text-anchor="start" x="639" y="-459.3" font-family="Times,serif" font-size="14.00">suivant</text>
<polygon fill="none" stroke="black" points="695,-452.5 695,-473.5 774,-473.5 774,-452.5 695,-452.5"/>
<text text-anchor="start" x="698" y="-459.3" font-family="Times,serif" font-size="14.00">utilisation</text>
<polygon fill="none" stroke="black" points="584,-431.5 584,-452.5 636,-452.5 636,-431.5 584,-431.5"/>
<text text-anchor="start" x="598" y="-438.3" font-family="Times,serif" font-size="14.00">&quot;V&quot;</text>
<polygon fill="none" stroke="black" points="636,-431.5 636,-452.5 695,-452.5 695,-431.5 636,-431.5"/>
<text text-anchor="start" x="659" y="-438.3" font-family="Times,serif" font-size="14.00">●</text>
<polygon fill="none" stroke="black" points="695,-431.5 695,-452.5 774,-452.5 774,-431.5 695,-431.5"/>
<text text-anchor="start" x="729.5" y="-438.3" font-family="Times,serif" font-size="14.00">1</text>
</g>
<!-- struct_140350717529488&#45;&gt;struct_140350717529584 -->
<g id="edge17" class="edge">
<title>struct_140350717529488:port_child0&#45;&gt;struct_140350717529584</title>
<path fill="none" stroke="black" d="M679,-537.5C679,-528.38 679,-518.63 679,-509.31"/>
<polygon fill="black" stroke="black" points="682.5,-509.03 679,-499.03 675.5,-509.03 682.5,-509.03"/>
</g>
<!-- struct_140350717529776 -->
<g id="node19" class="node">
<title>struct_140350717529776</title>
<polygon fill="gray" stroke="transparent" points="570,-325 570,-388 760,-388 760,-325 570,-325"/>
<polygon fill="none" stroke="black" points="570,-366.5 570,-387.5 760,-387.5 760,-366.5 570,-366.5"/>
<text text-anchor="start" x="640" y="-374.3" font-family="Times,serif" text-decoration="underline" font-size="14.00">Cellule</text>
<polygon fill="none" stroke="black" points="570,-345.5 570,-366.5 622,-366.5 622,-345.5 570,-345.5"/>
<text text-anchor="start" x="573" y="-352.3" font-family="Times,serif" font-size="14.00">valeur</text>
<polygon fill="none" stroke="black" points="622,-345.5 622,-366.5 681,-366.5 681,-345.5 622,-345.5"/>
<text text-anchor="start" x="625" y="-352.3" font-family="Times,serif" font-size="14.00">suivant</text>
<polygon fill="none" stroke="black" points="681,-345.5 681,-366.5 760,-366.5 760,-345.5 681,-345.5"/>
<text text-anchor="start" x="684" y="-352.3" font-family="Times,serif" font-size="14.00">utilisation</text>
<polygon fill="none" stroke="black" points="570,-324.5 570,-345.5 622,-345.5 622,-324.5 570,-324.5"/>
<text text-anchor="start" x="586.5" y="-331.3" font-family="Times,serif" font-size="14.00">&quot;I&quot;</text>
<polygon fill="none" stroke="black" points="622,-324.5 622,-345.5 681,-345.5 681,-324.5 622,-324.5"/>
<text text-anchor="start" x="645" y="-331.3" font-family="Times,serif" font-size="14.00">●</text>
<polygon fill="none" stroke="black" points="681,-324.5 681,-345.5 760,-345.5 760,-324.5 681,-324.5"/>
<text text-anchor="start" x="715.5" y="-331.3" font-family="Times,serif" font-size="14.00">1</text>
</g>
<!-- struct_140350717529584&#45;&gt;struct_140350717529776 -->
<g id="edge16" class="edge">
<title>struct_140350717529584:port_child0&#45;&gt;struct_140350717529776</title>
<path fill="none" stroke="black" d="M665,-430.5C665,-421.38 665,-411.63 665,-402.31"/>
<polygon fill="black" stroke="black" points="668.5,-402.03 665,-392.03 661.5,-402.03 668.5,-402.03"/>
</g>
<!-- struct_140350717529872 -->
<g id="node20" class="node">
<title>struct_140350717529872</title>
<polygon fill="gray" stroke="transparent" points="154,-218 154,-281 344,-281 344,-218 154,-218"/>
<polygon fill="none" stroke="black" points="154,-259.5 154,-280.5 344,-280.5 344,-259.5 154,-259.5"/>
<text text-anchor="start" x="224" y="-267.3" font-family="Times,serif" text-decoration="underline" font-size="14.00">Cellule</text>
<polygon fill="none" stroke="black" points="154,-238.5 154,-259.5 206,-259.5 206,-238.5 154,-238.5"/>
<text text-anchor="start" x="157" y="-245.3" font-family="Times,serif" font-size="14.00">valeur</text>
<polygon fill="none" stroke="black" points="206,-238.5 206,-259.5 265,-259.5 265,-238.5 206,-238.5"/>
<text text-anchor="start" x="209" y="-245.3" font-family="Times,serif" font-size="14.00">suivant</text>
<polygon fill="none" stroke="black" points="265,-238.5 265,-259.5 344,-259.5 344,-238.5 265,-238.5"/>
<text text-anchor="start" x="268" y="-245.3" font-family="Times,serif" font-size="14.00">utilisation</text>
<polygon fill="none" stroke="black" points="154,-217.5 154,-238.5 206,-238.5 206,-217.5 154,-217.5"/>
<text text-anchor="start" x="168" y="-224.3" font-family="Times,serif" font-size="14.00">&quot;S&quot;</text>
<polygon fill="none" stroke="black" points="206,-217.5 206,-238.5 265,-238.5 265,-217.5 206,-217.5"/>
<text text-anchor="start" x="229" y="-224.3" font-family="Times,serif" font-size="14.00">●</text>
<polygon fill="none" stroke="black" points="265,-217.5 265,-238.5 344,-238.5 344,-217.5 265,-217.5"/>
<text text-anchor="start" x="299.5" y="-224.3" font-family="Times,serif" font-size="14.00">1</text>
</g>
<!-- struct_140350717529776&#45;&gt;struct_140350717529872 -->
<g id="edge15" class="edge">
<title>struct_140350717529776:port_child0&#45;&gt;struct_140350717529872</title>
<path fill="none" stroke="black" d="M651,-323.5C651,-261.28 443.55,-295.62 362.4,-284.75"/>
<polygon fill="black" stroke="black" points="362.72,-281.25 352.27,-283 361.53,-288.15 362.72,-281.25"/>
</g>
<!-- struct_140350717529872&#45;&gt;struct_140350717527616 -->
<g id="edge14" class="edge">
<title>struct_140350717529872:port_child0&#45;&gt;struct_140350717527616</title>
<path fill="none" stroke="black" d="M235,-216.5C235,-205.59 230.98,-195.37 225.06,-186.23"/>
<polygon fill="black" stroke="black" points="227.88,-184.15 219.15,-178.15 222.23,-188.29 227.88,-184.15"/>
</g>
</g>
</svg>
