<svg width='800.0' height='600.0'>
<g fill-opacity="0.5">
<polygon points="752.5276566344681,488.7934137617631 612.010546704598,426.6137330512435 518.1304097261509,543.1971028074338" style="fill:rgb(49,190,254);stroke:none;stroke-width:1" />
<polygon points="515.777593447735,682.7717996763355 460.38466602601096,539.4435244897661 311.56449322164826,555.497134341765" style="fill:rgb(49,190,254);stroke:none;stroke-width:1" />
<polygon points="211.20658623823695,652.5276566344681 273.3862669487565,512.010546704598 156.8028971925662,418.1304097261509" style="fill:rgb(49,190,254);stroke:none;stroke-width:1" />
<polygon points="17.22820032366451,415.77759344773494 160.5564755102339,360.38466602601096 144.502865658235,211.56449322164823" style="fill:rgb(49,190,254);stroke:none;stroke-width:1" />
<polygon points="47.472343365531856,111.20658623823698 187.98945329540194,173.38626694875651 281.8695902738491,56.802897192566235" style="fill:rgb(49,190,254);stroke:none;stroke-width:1" />
<polygon points="284.22240655226506,-82.77179967633555 339.61533397398904,60.556475510233895 488.43550677835174,44.50286565823501" style="fill:rgb(49,190,254);stroke:none;stroke-width:1" />
<polygon points="588.7934137617631,-52.5276566344682 526.6137330512435,87.98945329540194 643.1971028074338,181.86959027384904" style="fill:rgb(49,190,254);stroke:none;stroke-width:1" />
<polygon points="782.7717996763355,184.22240655226503 639.4435244897661,239.61533397398904 655.497134341765,388.43550677835174" style="fill:rgb(49,190,254);stroke:none;stroke-width:1" />
<polygon points="753.7089348288489,458.33604753838245 726.1142709123783,507.43648483988164 445.12541847093416,546.5274952785603" style="fill:rgb(155,132,127);stroke:none;stroke-width:1" />
<polygon points="538.1494934630839,662.0704793044154 483.9178673080688,677.2773574996303 257.58722574427367,506.22975306508283" style="fill:rgb(155,132,127);stroke:none;stroke-width:1" />
<polygon points="241.66395246161758,653.7089348288489 192.56351516011838,626.1142709123783 153.4725047214397,345.12541847093416" style="fill:rgb(155,132,127);stroke:none;stroke-width:1" />
<polygon points="37.929520695584586,438.1494934630839 22.722642500369716,383.9178673080688 193.7702469349172,157.58722574427367" style="fill:rgb(155,132,127);stroke:none;stroke-width:1" />
<polygon points="46.291065171151104,141.6639524616176 73.88572908762171,92.56351516011838 354.87458152906584,53.47250472143969" style="fill:rgb(155,132,127);stroke:none;stroke-width:1" />
<polygon points="261.85050653691604,-62.07047930441547 316.0821326919312,-77.27735749963034 542.4127742557263,93.77024693491717" style="fill:rgb(155,132,127);stroke:none;stroke-width:1" />
<polygon points="558.3360475383824,-53.70893482884895 607.4364848398816,-26.114270912378345 646.5274952785603,254.87458152906578" style="fill:rgb(155,132,127);stroke:none;stroke-width:1" />
<polygon points="762.0704793044154,161.85050653691604 777.2773574996303,216.08213269193112 606.2297530650828,442.4127742557263" style="fill:rgb(155,132,127);stroke:none;stroke-width:1" />
<polygon points="545.9877102345755,503.37224634532913 786.1759305573842,395.96509327156963 509.2218793381432,407.8785246096853" style="fill:rgb(56,241,212);stroke:none;stroke-width:1" />
<polygon points="359.4230053808418,547.0347943726883 605.2100510186252,640.925187437678 400.9498952380316,453.51316782984827" style="fill:rgb(56,241,212);stroke:none;stroke-width:1" />
<polygon points="196.62775365467087,445.9877102345755 304.0349067284304,686.1759305573842 292.1214753903147,409.2218793381432" style="fill:rgb(56,241,212);stroke:none;stroke-width:1" />
<polygon points="152.96520562731163,259.4230053808418 59.074812562321995,505.2100510186252 246.48683217015173,300.9498952380316" style="fill:rgb(56,241,212);stroke:none;stroke-width:1" />
<polygon points="254.01228976542447,96.6277536546709 13.824069442615837,204.03490672843043 290.7781206618568,192.12147539031469" style="fill:rgb(56,241,212);stroke:none;stroke-width:1" />
<polygon points="440.57699461915814,52.965205627311605 194.78994898137472,-40.925187437678005 399.0501047619684,146.48683217015173" style="fill:rgb(56,241,212);stroke:none;stroke-width:1" />
<polygon points="603.3722463453291,154.01228976542447 495.9650932715696,-86.17593055738416 507.8785246096853,190.7781206618568" style="fill:rgb(56,241,212);stroke:none;stroke-width:1" />
<polygon points="647.0347943726883,340.57699461915814 740.925187437678,94.78994898137472 553.5131678298483,299.0501047619684" style="fill:rgb(56,241,212);stroke:none;stroke-width:1" />
<polygon points="507.9013839039428,503.3990711500293 774.813879167325,397.4206817878146 718.2518392264776,366.968507973702" style="fill:rgb(234,234,154);stroke:none;stroke-width:1" />
<polygon points="332.4729377606602,520.1226627551217 596.1466109220703,633.9202603620313 577.6841475279832,572.3919197562833" style="fill:rgb(234,234,154);stroke:none;stroke-width:1" />
<polygon points="196.60092884997073,407.9013839039428 302.5793182121854,674.813879167325 333.031492026298,618.2518392264776" style="fill:rgb(234,234,154);stroke:none;stroke-width:1" />
<polygon points="179.87733724487828,232.47293776066022 66.07973963796877,496.1466109220703 127.6080802437167,477.68414752798316" style="fill:rgb(234,234,154);stroke:none;stroke-width:1" />
<polygon points="292.0986160960572,96.60092884997073 25.186120832674987,202.57931821218546 81.74816077352239,233.03149202629805" style="fill:rgb(234,234,154);stroke:none;stroke-width:1" />
<polygon points="467.5270622393398,79.87733724487828 203.8533890779297,-33.92026036203123 222.31585247201681,27.6080802437167" style="fill:rgb(234,234,154);stroke:none;stroke-width:1" />
<polygon points="603.3990711500293,192.09861609605713 497.42068178781454,-74.81387916732501 466.96850797370195,-18.251839226477614" style="fill:rgb(234,234,154);stroke:none;stroke-width:1" />
<polygon points="620.1226627551217,367.5270622393398 733.9202603620312,103.8533890779297 672.3919197562832,122.31585247201679" style="fill:rgb(234,234,154);stroke:none;stroke-width:1" />
<polygon points="480.8204247277009,485.99771176912964 577.00097918816,514.8257000544762 687.5026552039442,500.60335232387865" style="fill:rgb(252,118,166);stroke:none;stroke-width:1" />
<polygon points="325.6284271062018,488.6689136604667 373.2538833789396,577.0633019422744 461.44708634687805,645.1430678608156" style="fill:rgb(252,118,166);stroke:none;stroke-width:1" />
<polygon points="214.00228823087036,380.8204247277009 185.17429994552379,477.00097918816004 199.39664767612138,587.5026552039442" style="fill:rgb(252,118,166);stroke:none;stroke-width:1" />
<polygon points="211.33108633953327,225.6284271062018 122.93669805772566,273.2538833789396 54.85693213918444,361.44708634687805" style="fill:rgb(252,118,166);stroke:none;stroke-width:1" />
<polygon points="319.1795752722991,114.00228823087036 222.99902081183993,85.17429994552381 112.49734479605581,99.39664767612138" style="fill:rgb(252,118,166);stroke:none;stroke-width:1" />
<polygon points="474.3715728937982,111.33108633953321 426.7461166210604,22.936698057725607 338.5529136531219,-45.14306786081556" style="fill:rgb(252,118,166);stroke:none;stroke-width:1" />
<polygon points="585.9977117691296,219.17957527229905 614.8257000544762,122.99902081183993 600.6033523238787,12.497344796055756" style="fill:rgb(252,118,166);stroke:none;stroke-width:1" />
<polygon points="588.6689136604667,374.3715728937982 677.0633019422744,326.7461166210604 745.1430678608156,238.5529136531219" style="fill:rgb(252,118,166);stroke:none;stroke-width:1" />
<polygon points="435.3829990661926,363.8895602280699 650.7808693222071,378.91653055722435 690.6721521440035,459.68048999725943" style="fill:rgb(103,206,162);stroke:none;stroke-width:1" />
<polygon points="379.8428172941275,370.19629986271667 521.5264393848613,533.1312671943188 492.6250925828599,618.4474071833655" style="fill:rgb(103,206,162);stroke:none;stroke-width:1" />
<polygon points="336.1104397719301,335.3829990661926 321.08346944277565,550.7808693222071 240.3195100027406,590.6721521440035" style="fill:rgb(103,206,162);stroke:none;stroke-width:1" />
<polygon points="329.80370013728333,279.8428172941275 166.86873280568125,421.5264393848613 81.5525928166345,392.6250925828599" style="fill:rgb(103,206,162);stroke:none;stroke-width:1" />
<polygon points="364.6170009338074,236.1104397719301 149.21913067779292,221.08346944277568 109.32784785599654,140.3195100027406" style="fill:rgb(103,206,162);stroke:none;stroke-width:1" />
<polygon points="420.1571827058725,229.80370013728333 278.47356061513864,66.86873280568125 307.37490741714004,-18.447407183365556" style="fill:rgb(103,206,162);stroke:none;stroke-width:1" />
<polygon points="463.8895602280699,264.6170009338074 478.9165305572243,49.21913067779289 559.6804899972594,9.327847855996481" style="fill:rgb(103,206,162);stroke:none;stroke-width:1" />
<polygon points="470.19629986271667,320.1571827058725 633.1312671943188,178.47356061513864 718.4474071833655,207.37490741714004" style="fill:rgb(103,206,162);stroke:none;stroke-width:1" />
<polygon points="435.7123281457653,435.007329414237 494.4912877262742,361.88148622641035 660.4532919256718,351.9401872115801" style="fill:rgb(130,19,190);stroke:none;stroke-width:1" />
<polygon points="329.78783126513684,420.7170275425229 423.058611773701,410.5722488548944 547.4410303095949,520.8955474964091" style="fill:rgb(130,19,190);stroke:none;stroke-width:1" />
<polygon points="264.992670585763,335.7123281457653 338.11851377358965,394.4912877262742 348.0598127884199,560.4532919256718" style="fill:rgb(130,19,190);stroke:none;stroke-width:1" />
<polygon points="279.2829724574771,229.78783126513684 289.4277511451056,323.058611773701 179.10445250359092,447.4410303095949" style="fill:rgb(130,19,190);stroke:none;stroke-width:1" />
<polygon points="364.2876718542347,164.992670585763 305.5087122737258,238.11851377358965 139.5467080743282,248.05981278841992" style="fill:rgb(130,19,190);stroke:none;stroke-width:1" />
<polygon points="470.21216873486316,179.28297245747711 376.941388226299,189.42775114510562 252.55896969040504,79.10445250359092" style="fill:rgb(130,19,190);stroke:none;stroke-width:1" />
<polygon points="535.007329414237,264.2876718542347 461.88148622641035,205.5087122737258 451.94018721158005,39.546708074328194" style="fill:rgb(130,19,190);stroke:none;stroke-width:1" />
<polygon points="520.7170275425228,370.21216873486316 510.5722488548944,276.94138822629895 620.8955474964091,152.55896969040504" style="fill:rgb(130,19,190);stroke:none;stroke-width:1" />
<polygon points="508.46373210649654,303.99814252353843 469.591561858584,350.3364463681626 559.8093079012085,410.76489815248647" style="fill:rgb(18,14,242);stroke:none;stroke-width:1" />
<polygon points="473.86832679476043,379.52255417584905 413.6154227358071,384.8019078713286 434.679634712613,491.3248559147339" style="fill:rgb(18,14,242);stroke:none;stroke-width:1" />
<polygon points="396.00185747646157,408.46373210649654 349.6635536318374,369.591561858584 289.23510184751353,459.8093079012085" style="fill:rgb(18,14,242);stroke:none;stroke-width:1" />
<polygon points="320.47744582415095,373.86832679476043 315.1980921286714,313.6154227358071 208.67514408526608,334.679634712613" style="fill:rgb(18,14,242);stroke:none;stroke-width:1" />
<polygon points="291.53626789350346,296.00185747646157 330.408438141416,249.66355363183737 240.1906920987915,189.23510184751353" style="fill:rgb(18,14,242);stroke:none;stroke-width:1" />
<polygon points="326.13167320523957,220.47744582415095 386.3845772641929,215.19809212867142 365.320365287387,108.67514408526608" style="fill:rgb(18,14,242);stroke:none;stroke-width:1" />
<polygon points="403.99814252353843,191.53626789350346 450.3364463681626,230.408438141416 510.76489815248647,140.19069209879146" style="fill:rgb(18,14,242);stroke:none;stroke-width:1" />
<polygon points="479.52255417584905,226.13167320523957 484.8019078713286,286.3845772641929 591.3248559147339,265.32036528738695" style="fill:rgb(18,14,242);stroke:none;stroke-width:1" />
<polygon points="707.1760755619575,338.99018866778135 727.6032454907984,394.9479767347541 601.4320125809568,393.17130398893863" style="fill:rgb(62,163,57);stroke:none;stroke-width:1" />
<polygon points="589.6360592414005,544.7765128548625 564.5121182161777,598.7888346343519 476.5518811814768,508.3160029066202" style="fill:rgb(62,163,57);stroke:none;stroke-width:1" />
<polygon points="361.00981133221865,607.1760755619575 305.0520232652459,627.6032454907984 306.82869601106137,501.4320125809568" style="fill:rgb(62,163,57);stroke:none;stroke-width:1" />
<polygon points="155.22348714513745,489.63605924140046 101.21116536564807,464.51211821617767 191.6839970933798,376.5518811814768" style="fill:rgb(62,163,57);stroke:none;stroke-width:1" />
<polygon points="92.82392443804247,261.0098113322187 72.39675450920163,205.05202326524596 198.56798741904322,206.8286960110614" style="fill:rgb(62,163,57);stroke:none;stroke-width:1" />
<polygon points="210.36394075859954,55.223487145137454 235.48788178382233,1.2111653656480712 323.4481188185232,91.68399709337979" style="fill:rgb(62,163,57);stroke:none;stroke-width:1" />
<polygon points="438.9901886677813,-7.176075561957532 494.94797673475404,-27.603245490798372 493.1713039889386,98.56798741904319" style="fill:rgb(62,163,57);stroke:none;stroke-width:1" />
<polygon points="644.7765128548625,110.36394075859951 698.7888346343519,135.48788178382233 608.3160029066203,223.4481188185232" style="fill:rgb(62,163,57);stroke:none;stroke-width:1" />
<polygon points="439.4215688917477,497.3657369581985 715.7384576881939,493.7444556119053 568.0738665698525,519.1234508521679" style="fill:rgb(183,35,157);stroke:none;stroke-width:1" />
<polygon points="288.3166077113449,467.43390966539005 486.2627861322294,660.258822893178 363.9024927772206,573.7898488063508" style="fill:rgb(183,35,157);stroke:none;stroke-width:1" />
<polygon points="202.6342630418015,339.4215688917477 206.2555443880947,615.7384576881939 180.87654914783207,468.0738665698525" style="fill:rgb(183,35,157);stroke:none;stroke-width:1" />
<polygon points="232.56609033460995,188.31660771134491 39.741177106821965,386.2627861322294 126.21015119364921,263.9024927772206" style="fill:rgb(183,35,157);stroke:none;stroke-width:1" />
<polygon points="360.5784311082523,102.63426304180149 84.26154231180612,106.2555443880947 231.92613343014747,80.8765491478321" style="fill:rgb(183,35,157);stroke:none;stroke-width:1" />
<polygon points="511.6833922886551,132.56609033460992 313.73721386777055,-60.258822893178035 436.0975072227794,26.21015119364921" style="fill:rgb(183,35,157);stroke:none;stroke-width:1" />
<polygon points="597.3657369581986,260.57843110825223 593.7444556119053,-15.738457688193932 619.1234508521679,131.92613343014747" style="fill:rgb(183,35,157);stroke:none;stroke-width:1" />
<polygon points="567.43390966539,411.68339228865506 760.258822893178,213.73721386777052 673.7898488063508,336.09750722277937" style="fill:rgb(183,35,157);stroke:none;stroke-width:1" />
<polygon points="661.6555804462041,302.06784385811704 642.7918824185374,516.5191718140856 632.4156837406053,456.65077108070915" style="fill:rgb(118,64,230);stroke:none;stroke-width:1" />
<polygon points="583.5562488543036,486.4806216833226 418.5776118285596,624.7819611218298 453.5738835178191,575.111528536361" style="fill:rgb(118,64,230);stroke:none;stroke-width:1" />
<polygon points="397.93215614188296,561.6555804462041 183.48082818591448,542.7918824185374 243.34922891929088,532.4156837406053" style="fill:rgb(118,64,230);stroke:none;stroke-width:1" />
<polygon points="213.51937831667738,483.5562488543036 75.2180388781702,318.5776118285596 124.88847146363901,353.5738835178191" style="fill:rgb(118,64,230);stroke:none;stroke-width:1" />
<polygon points="138.3444195537959,297.932156141883 157.20811758146257,83.48082818591448 167.58431625939463,143.34922891929088" style="fill:rgb(118,64,230);stroke:none;stroke-width:1" />
<polygon points="216.44375114569635,113.51937831667738 381.42238817144033,-24.781961121829795 346.4261164821809,24.888471463639007" style="fill:rgb(118,64,230);stroke:none;stroke-width:1" />
<polygon points="402.067843858117,38.34441955379589 616.5191718140854,57.208117581462574 556.6507710807091,67.58431625939463" style="fill:rgb(118,64,230);stroke:none;stroke-width:1" />
<polygon points="586.4806216833226,116.44375114569635 724.7819611218298,281.4223881714403 675.111528536361,246.42611648218082" style="fill:rgb(118,64,230);stroke:none;stroke-width:1" />
<polygon points="745.2778862862546,440.53032743632593 523.0808297868434,511.15568564071873 787.6325228912901,573.4351311551401" style="fill:rgb(176,176,248);stroke:none;stroke-width:1" />
<polygon points="544.7783872941762,643.5182822793602 337.72167217369713,536.3409065789913 480.7497500904483,767.4454209993135" style="fill:rgb(176,176,248);stroke:none;stroke-width:1" />
<polygon points="259.46967256367407,645.2778862862546 188.84431435928127,423.0808297868434 126.56486884485992,687.6325228912901" style="fill:rgb(176,176,248);stroke:none;stroke-width:1" />
<polygon points="56.48171772063978,444.77838729417624 163.65909342100866,237.7216721736971 -67.44542099931346,380.7497500904483" style="fill:rgb(176,176,248);stroke:none;stroke-width:1" />
<polygon points="54.72211371374544,159.4696725636741 276.9191702131566,88.8443143592813 12.367477108709807,26.564868844859973" style="fill:rgb(176,176,248);stroke:none;stroke-width:1" />
<polygon points="255.2216127058237,-43.51828227936028 462.27832782630287,63.65909342100866 319.2502499095516,-167.44542099931346" style="fill:rgb(176,176,248);stroke:none;stroke-width:1" />
<polygon points="540.5303274363259,-45.27788628625456 611.1556856407187,176.91917021315652 673.43513115514,-87.6325228912902" style="fill:rgb(176,176,248);stroke:none;stroke-width:1" />
<polygon points="743.5182822793602,155.2216127058237 636.3409065789913,362.27832782630287 867.4454209993135,219.2502499095516" style="fill:rgb(176,176,248);stroke:none;stroke-width:1" />
<polygon points="620.6981564466636,402.69216462328257 603.9603008579388,592.619343462555 741.0029035236134,589.4712140192903" style="fill:rgb(71,245,11);stroke:none;stroke-width:1" />
<polygon points="483.442837038957,528.6714889986538 337.30858976076894,651.134833898225 436.4384070945066,745.8125238771917" style="fill:rgb(71,245,11);stroke:none;stroke-width:1" />
<polygon points="297.30783537671743,520.6981564466636 107.38065653744502,503.9603008579388 110.5287859807097,641.0029035236134" style="fill:rgb(71,245,11);stroke:none;stroke-width:1" />
<polygon points="171.32851100134624,383.442837038957 48.865166101775,237.30858976076894 -45.812523877191666,336.4384070945066" style="fill:rgb(71,245,11);stroke:none;stroke-width:1" />
<polygon points="179.30184355333643,197.30783537671746 196.03969914206115,7.38065653744502 58.9970964763865,10.528785980709756" style="fill:rgb(71,245,11);stroke:none;stroke-width:1" />
<polygon points="316.557162961043,71.32851100134621 462.69141023923106,-51.134833898225054 363.5615929054934,-145.81252387719167" style="fill:rgb(71,245,11);stroke:none;stroke-width:1" />
<polygon points="502.6921646232825,79.3018435533364 692.619343462555,96.03969914206112 689.4712140192903,-41.0029035236135" style="fill:rgb(71,245,11);stroke:none;stroke-width:1" />
<polygon points="628.6714889986538,216.55716296104296 751.134833898225,362.691410239231 845.8125238771917,263.5615929054934" style="fill:rgb(71,245,11);stroke:none;stroke-width:1" />
<polygon points="519.6912347055375,415.02887268409256 504.47594022506553,430.78955460174336 512.5188009499449,309.6732181196084" style="fill:rgb(221,195,99);stroke:none;stroke-width:1" />
<polygon points="403.2967878017103,465.97217961604207 381.3934648367233,466.3578267712452 472.7228090344137,386.4028052909571" style="fill:rgb(221,195,99);stroke:none;stroke-width:1" />
<polygon points="284.97112731590744,419.69123470553745 269.21044539825664,404.47594022506553 390.3267818803916,412.5188009499449" style="fill:rgb(221,195,99);stroke:none;stroke-width:1" />
<polygon points="234.02782038395793,303.2967878017103 233.6421732287548,281.3934648367233 313.5971947090429,372.7228090344137" style="fill:rgb(221,195,99);stroke:none;stroke-width:1" />
<polygon points="280.30876529446255,184.97112731590744 295.52405977493447,169.21044539825664 287.4811990500551,290.3267818803916" style="fill:rgb(221,195,99);stroke:none;stroke-width:1" />
<polygon points="396.7032121982897,134.02782038395793 418.6065351632767,133.6421732287548 327.2771909655863,213.59719470904295" style="fill:rgb(221,195,99);stroke:none;stroke-width:1" />
<polygon points="515.0288726840926,180.30876529446255 530.7895546017434,195.52405977493444 409.6732181196084,187.48119905005512" style="fill:rgb(221,195,99);stroke:none;stroke-width:1" />
<polygon points="565.972179616042,296.70321219828963 566.3578267712452,318.6065351632767 486.402805290957,227.2771909655863" style="fill:rgb(221,195,99);stroke:none;stroke-width:1" />
<polygon points="424.13665829295655,500.9083800248279 711.5710933709508,502.8562654423845 622.6164205355586,533.4965380568603" style="fill:rgb(2,118,62);stroke:none;stroke-width:1" />
<polygon points="275.0035168413724,459.13087266689183 476.87299204381793,663.7550738447947 392.306595120581,622.5205660077584" style="fill:rgb(2,118,62);stroke:none;stroke-width:1" />
<polygon points="199.09161997517208,324.13665829295655 197.14373455761555,611.5710933709508 166.50346194313965,522.6164205355586" style="fill:rgb(2,118,62);stroke:none;stroke-width:1" />
<polygon points="240.86912733310817,175.0035168413724 36.24492615520535,376.87299204381793 77.47943399224164,292.306595120581" style="fill:rgb(2,118,62);stroke:none;stroke-width:1" />
<polygon points="375.86334170704345,99.09161997517208 88.42890662904915,97.14373455761555 177.38357946444134,66.50346194313968" style="fill:rgb(2,118,62);stroke:none;stroke-width:1" />
<polygon points="524.9964831586276,140.86912733310814 323.127007956182,-63.75507384479465 407.69340487941895,-22.52056600775842" style="fill:rgb(2,118,62);stroke:none;stroke-width:1" />
<polygon points="600.9083800248279,275.8633417070434 602.8562654423845,-11.571093370950905 633.4965380568603,77.38357946444131" style="fill:rgb(2,118,62);stroke:none;stroke-width:1" />
<polygon points="559.1308726668918,424.9964831586276 763.7550738447947,223.12700795618198 722.5205660077584,307.69340487941895" style="fill:rgb(2,118,62);stroke:none;stroke-width:1" />
<polygon points="775.707728476693,332.7948649302604 591.6819507666274,479.9734163656426 534.360519690546,559.8738034683608" style="fill:rgb(163,13,200);stroke:none;stroke-width:1" />
<polygon points="642.4760111697797,588.8549539303477 408.2791840726924,562.800030363604 311.24870591171566,578.7657632821517" style="fill:rgb(163,13,200);stroke:none;stroke-width:1" />
<polygon points="367.2051350697396,675.707728476693 220.0265836343574,491.68195076662744 140.12619653163915,434.36051969054597" style="fill:rgb(163,13,200);stroke:none;stroke-width:1" />
<polygon points="111.14504606965227,542.4760111697797 137.19996963639596,308.2791840726924 121.2342367178482,211.24870591171563" style="fill:rgb(163,13,200);stroke:none;stroke-width:1" />
<polygon points="24.292271523307022,267.20513506973964 208.31804923337253,120.02658363435742 265.63948030945403,40.12619653163915" style="fill:rgb(163,13,200);stroke:none;stroke-width:1" />
<polygon points="157.52398883022022,11.145046069652267 391.7208159273076,37.19996963639596 488.75129408828434,21.234236717848205" style="fill:rgb(163,13,200);stroke:none;stroke-width:1" />
<polygon points="432.79486493026036,-75.70772847669298 579.9734163656426,108.31804923337253 659.8738034683608,165.63948030945397" style="fill:rgb(163,13,200);stroke:none;stroke-width:1" />
<polygon points="688.8549539303477,57.52398883022022 662.800030363604,291.7208159273076 678.7657632821517,388.75129408828434" style="fill:rgb(163,13,200);stroke:none;stroke-width:1" />
<polygon points="730.7893664035829,596.1213151762619 609.2684410113359,365.47271826205497 771.9040556407333,312.3372514358723" style="fill:rgb(171,104,106);stroke:none;stroke-width:1" />
<polygon points="424.5140141133613,743.2927941433886 501.67893066163725,494.271336793268 654.2521255428328,571.6996338458504" style="fill:rgb(171,104,106);stroke:none;stroke-width:1" />
<polygon points="103.87868482373813,630.7893664035829 334.52728173794503,509.2684410113359 387.6627485641277,671.9040556407333" style="fill:rgb(171,104,106);stroke:none;stroke-width:1" />
<polygon points="-43.292794143388676,324.5140141133613 205.72866320673202,401.67893066163725 128.30036615414963,554.2521255428328" style="fill:rgb(171,104,106);stroke:none;stroke-width:1" />
<polygon points="69.21063359641704,3.8786848237381832 190.73155898866412,234.52728173794506 28.095944359266696,287.66274856412775" style="fill:rgb(171,104,106);stroke:none;stroke-width:1" />
<polygon points="375.4859858866387,-143.29279414338873 298.32106933836275,105.72866320673202 145.74787445716714,28.30036615414963" style="fill:rgb(171,104,106);stroke:none;stroke-width:1" />
<polygon points="696.1213151762618,-30.78936640358296 465.4727182620549,90.73155898866412 412.33725143587225,-71.9040556407333" style="fill:rgb(171,104,106);stroke:none;stroke-width:1" />
<polygon points="843.2927941433886,275.48598588663856 594.2713367932679,198.32106933836275 671.6996338458503,45.74787445716714" style="fill:rgb(171,104,106);stroke:none;stroke-width:1" />
<polygon points="670.7548921037339,482.599144339172 789.302407225179,383.1547257660384 776.2848720407997,387.821292990493" style="fill:rgb(140,155,197);stroke:none;stroke-width:1" />
<polygon points="462.3355270448926,620.569713447072 616.4791016042974,634.0776425580443 603.9745528718136,628.17261648411" style="fill:rgb(140,155,197);stroke:none;stroke-width:1" />
<polygon points="217.400855660828,570.7548921037339 316.8452742339616,689.302407225179 312.178707009507,676.2848720407997" style="fill:rgb(140,155,197);stroke:none;stroke-width:1" />
<polygon points="79.43028655292801,362.3355270448926 65.92235744195574,516.4791016042974 71.82738351589006,503.97455287181356" style="fill:rgb(140,155,197);stroke:none;stroke-width:1" />
<polygon points="129.24510789626606,117.400855660828 10.697592774821032,216.84527423396167 23.715127959200345,212.17870700950704" style="fill:rgb(140,155,197);stroke:none;stroke-width:1" />
<polygon points="337.6644729551074,-20.56971344707199 183.52089839570255,-34.07764255804426 196.02544712818639,-28.172616484109938" style="fill:rgb(140,155,197);stroke:none;stroke-width:1" />
<polygon points="582.599144339172,29.245107896266006 483.1547257660383,-89.30240722517897 487.82129299049296,-76.28487204079966" style="fill:rgb(140,155,197);stroke:none;stroke-width:1" />
<polygon points="720.569713447072,237.66447295510736 734.0776425580443,83.52089839570255 728.17261648411,96.02544712818639" style="fill:rgb(140,155,197);stroke:none;stroke-width:1" />
<polygon points="504.4199004432803,349.13120925571474 696.5137628708625,477.9023170798531 462.07114533798733,345.0806740200266" style="fill:rgb(52,151,63);stroke:none;stroke-width:1" />
<polygon points="439.09500846165656,408.5770309268788 483.87095764516334,635.4628272370903 412.0140774844856,375.76777808452766" style="fill:rgb(52,151,63);stroke:none;stroke-width:1" />
<polygon points="350.86879074428526,404.4199004432803 222.09768292014692,596.5137628708625 354.9193259799734,362.07114533798733" style="fill:rgb(52,151,63);stroke:none;stroke-width:1" />
<polygon points="291.4229690731212,339.09500846165656 64.53717276290973,383.87095764516334 324.23222191547234,312.0140774844856" style="fill:rgb(52,151,63);stroke:none;stroke-width:1" />
<polygon points="295.5800995567197,250.86879074428526 103.48623712913752,122.09768292014692 337.92885466201267,254.9193259799734" style="fill:rgb(52,151,63);stroke:none;stroke-width:1" />
<polygon points="360.90499153834344,191.42296907312115 316.12904235483666,-35.46282723709032 387.9859225155144,224.23222191547237" style="fill:rgb(52,151,63);stroke:none;stroke-width:1" />
<polygon points="449.13120925571474,195.5800995567197 577.902317079853,3.4862371291374643 445.0806740200266,237.92885466201267" style="fill:rgb(52,151,63);stroke:none;stroke-width:1" />
<polygon points="508.5770309268788,260.90499153834344 735.4628272370903,216.12904235483663 475.76777808452766,287.9859225155144" style="fill:rgb(52,151,63);stroke:none;stroke-width:1" />
<polygon points="480.75735828588665,513.0706889342705 796.977778232708,308.8538039282451 432.87571759458746,446.77377683143425" style="fill:rgb(255,219,157);stroke:none;stroke-width:1" />
<polygon points="306.44034665715,507.7678046921742 674.4450941717591,586.9662637656754 319.46190994963854,427.0313757453748" style="fill:rgb(255,219,157);stroke:none;stroke-width:1" />
<polygon points="186.9293110657295,380.75735828588665 391.1461960717549,696.977778232708 253.22622316856575,332.87571759458746" style="fill:rgb(255,219,157);stroke:none;stroke-width:1" />
<polygon points="192.2321953078258,206.44034665714997 113.03373623432458,574.4450941717591 272.9686242546252,219.46190994963857" style="fill:rgb(255,219,157);stroke:none;stroke-width:1" />
<polygon points="319.24264171411335,86.92931106572951 3.022221767291967,291.14619607175496 367.12428240541254,153.22622316856575" style="fill:rgb(255,219,157);stroke:none;stroke-width:1" />
<polygon points="493.55965334285,92.23219530782575 125.55490582824086,13.033736234324579 480.53809005036146,172.96862425462518" style="fill:rgb(255,219,157);stroke:none;stroke-width:1" />
<polygon points="613.0706889342705,219.2426417141133 408.85380392824504,-96.97777823270803 546.7737768314342,267.1242824054125" style="fill:rgb(255,219,157);stroke:none;stroke-width:1" />
<polygon points="607.7678046921742,393.55965334285 686.9662637656754,25.554905828240862 527.0313757453748,380.5380900503614" style="fill:rgb(255,219,157);stroke:none;stroke-width:1" />
<polygon points="452.2308770210075,332.6553074014639 545.8224080443516,302.39458112719484 665.1884544424848,331.46871456559944" style="fill:rgb(149,66,103);stroke:none;stroke-width:1" />
<polygon points="413.84201802356864,360.0235966341814 501.418789023972,404.80523813025354 565.2648129641016,509.76829589322006" style="fill:rgb(149,66,103);stroke:none;stroke-width:1" />
<polygon points="367.3446925985361,352.2308770210075 397.60541887280516,445.8224080443516 368.53128543440056,565.1884544424848" style="fill:rgb(149,66,103);stroke:none;stroke-width:1" />
<polygon points="339.9764033658186,313.84201802356864 295.19476186974646,401.418789023972 190.23170410677992,465.2648129641016" style="fill:rgb(149,66,103);stroke:none;stroke-width:1" />
<polygon points="347.7691229789925,267.3446925985361 254.17759195564838,297.60541887280516 134.81154555751516,268.5312854344006" style="fill:rgb(149,66,103);stroke:none;stroke-width:1" />
<polygon points="386.15798197643136,239.9764033658186 298.581210976028,195.19476186974643 234.73518703589835,90.23170410677992" style="fill:rgb(149,66,103);stroke:none;stroke-width:1" />
<polygon points="432.6553074014639,247.76912297899253 402.39458112719484,154.17759195564838 431.4687145655994,34.81154555751516" style="fill:rgb(149,66,103);stroke:none;stroke-width:1" />
<polygon points="460.0235966341814,286.15798197643136 504.80523813025354,198.581210976028 609.76829589322,134.73518703589835" style="fill:rgb(149,66,103);stroke:none;stroke-width:1" />
<polygon points="779.6729758642448,379.4576383197551 655.5622836858929,335.4401083445191 710.297582221611,391.77790860581" style="fill:rgb(7,182,44);stroke:none;stroke-width:1" />
<polygon points="612.284300993917,624.6543707398507 555.6498828734196,505.76976474621046 554.516743036404,584.3103061129789" style="fill:rgb(7,182,44);stroke:none;stroke-width:1" />
<polygon points="320.5423616802449,679.6729758642448 364.5598916554809,555.5622836858929 308.22209139419,610.297582221611" style="fill:rgb(7,182,44);stroke:none;stroke-width:1" />
<polygon points="75.34562926014922,512.284300993917 194.23023525378954,455.64988287341964 115.68969388702112,454.516743036404" style="fill:rgb(7,182,44);stroke:none;stroke-width:1" />
<polygon points="20.32702413575521,220.54236168024494 144.4377163141071,264.5598916554809 89.70241777838896,208.22209139419004" style="fill:rgb(7,182,44);stroke:none;stroke-width:1" />
<polygon points="187.71569900608296,-24.654370739850776 244.3501171265803,94.23023525378954 245.48325696359595,15.689693887021122" style="fill:rgb(7,182,44);stroke:none;stroke-width:1" />
<polygon points="479.45763831975506,-79.67297586424479 435.44010834451905,44.43771631410709 491.77790860580996,-10.297582221611037" style="fill:rgb(7,182,44);stroke:none;stroke-width:1" />
<polygon points="724.6543707398507,87.71569900608293 605.7697647462104,144.3501171265803 684.3103061129789,145.48325696359592" style="fill:rgb(7,182,44);stroke:none;stroke-width:1" />
<polygon points="763.2611172976044,362.295162753947 515.2373911504641,357.7751158912712 414.7536297275168,311.8282250856587" style="fill:rgb(183,177,171);stroke:none;stroke-width:1" />
<polygon points="612.8150673641023,600.9137314009735 440.63196449818327,422.3383169592963 402.06857345997247,318.79620979491267" style="fill:rgb(183,177,171);stroke:none;stroke-width:1" />
<polygon points="337.704837246053,663.2611172976044 342.2248841087288,415.2373911504641 388.1717749143413,314.7536297275168" style="fill:rgb(183,177,171);stroke:none;stroke-width:1" />
<polygon points="99.08626859902654,512.8150673641023 277.6616830407037,340.63196449818327 381.20379020508733,302.06857345997247" style="fill:rgb(183,177,171);stroke:none;stroke-width:1" />
<polygon points="36.738882702395586,237.70483724605305 284.7626088495359,242.22488410872882 385.2463702724832,288.1717749143413" style="fill:rgb(183,177,171);stroke:none;stroke-width:1" />
<polygon points="187.18493263589755,-0.913731400973461 359.36803550181673,177.66168304070368 397.93142654002753,281.20379020508733" style="fill:rgb(183,177,171);stroke:none;stroke-width:1" />
<polygon points="462.29516275394695,-63.261117297604414 457.7751158912712,184.76260884953592 411.8282250856587,285.2463702724832" style="fill:rgb(183,177,171);stroke:none;stroke-width:1" />
<polygon points="700.9137314009735,87.18493263589755 522.3383169592963,259.3680355018167 418.79620979491267,297.93142654002753" style="fill:rgb(183,177,171);stroke:none;stroke-width:1" />
<polygon points="455.0780451521896,485.26818642578417 452.1256409369192,492.955112543793 462.965517105504,580.4368896227086" style="fill:rgb(217,39,203);stroke:none;stroke-width:1" />
<polygon points="307.9416682618066,469.9504501814176 300.4185256358612,473.29826272452016 246.22451777913886,542.8221704733" style="fill:rgb(217,39,203);stroke:none;stroke-width:1" />
<polygon points="214.73181357421583,355.0780451521896 207.044887456207,352.1256409369192 119.56311037729142,362.965517105504" style="fill:rgb(217,39,203);stroke:none;stroke-width:1" />
<polygon points="230.04954981858242,207.94166826180665 226.70173727547984,200.4185256358612 157.1778295267,146.22451777913886" style="fill:rgb(217,39,203);stroke:none;stroke-width:1" />
<polygon points="344.9219548478104,114.73181357421583 347.8743590630808,107.044887456207 337.03448289449597,19.563110377291423" style="fill:rgb(217,39,203);stroke:none;stroke-width:1" />
<polygon points="492.0583317381933,130.04954981858242 499.5814743641388,126.70173727547981 553.7754822208611,57.17782952669995" style="fill:rgb(217,39,203);stroke:none;stroke-width:1" />
<polygon points="585.2681864257842,244.92195484781038 592.955112543793,247.8743590630808 680.4368896227086,237.03448289449597" style="fill:rgb(217,39,203);stroke:none;stroke-width:1" />
<polygon points="569.9504501814176,392.0583317381933 573.2982627245202,399.5814743641388 642.8221704733,453.77548222086114" style="fill:rgb(217,39,203);stroke:none;stroke-width:1" />
<polygon points="615.2506478779808,597.2575213907062 602.3391630871756,349.32194202900286 449.9729875014409,568.4504871920465" style="fill:rgb(132,246,25);stroke:none;stroke-width:1" />
<polygon points="342.0123836352444,662.3980019033916 508.19951464855495,477.9512739885504 245.513078432091,525.159398244748" style="fill:rgb(132,246,25);stroke:none;stroke-width:1" />
<polygon points="102.74247860929381,515.2506478779808 350.67805797099714,502.3391630871756 131.54951280795353,349.9729875014409" style="fill:rgb(132,246,25);stroke:none;stroke-width:1" />
<polygon points="37.6019980966085,242.01238363524442 222.04872601144965,408.19951464855495 174.84060175525207,145.513078432091" style="fill:rgb(132,246,25);stroke:none;stroke-width:1" />
<polygon points="184.7493521220192,2.742478609293812 197.66083691282438,250.67805797099717 350.02701249855903,31.549512807953533" style="fill:rgb(132,246,25);stroke:none;stroke-width:1" />
<polygon points="457.9876163647556,-62.39800190339156 291.80048535144505,122.04872601144965 554.486921567909,74.84060175525201" style="fill:rgb(132,246,25);stroke:none;stroke-width:1" />
<polygon points="697.2575213907062,84.74935212201916 449.3219420290028,97.66083691282438 668.4504871920465,250.02701249855903" style="fill:rgb(132,246,25);stroke:none;stroke-width:1" />
<polygon points="762.3980019033916,357.98761636475547 577.9512739885504,191.80048535144502 625.159398244748,454.486921567909" style="fill:rgb(132,246,25);stroke:none;stroke-width:1" />
<polygon points="410.0158102804334,478.72244620420247 526.667504642161,453.66208710389094 746.6926868762505,420.16984757611283" style="fill:rgb(190,182,213);stroke:none;stroke-width:1" />
<polygon points="280.7063937071329,433.45810102961195 380.91194768601133,498.2229552908898 560.175835762758,630.1216639932043" style="fill:rgb(190,182,213);stroke:none;stroke-width:1" />
<polygon points="221.27755379579753,310.0158102804334 246.33791289610906,426.667504642161 279.83015242388717,646.6926868762505" style="fill:rgb(190,182,213);stroke:none;stroke-width:1" />
<polygon points="266.54189897038805,180.70639370713292 201.7770447091102,280.91194768601133 69.87833600679573,460.17583576275797" style="fill:rgb(190,182,213);stroke:none;stroke-width:1" />
<polygon points="389.9841897195666,121.27755379579753 273.332495357839,146.3379128961091 53.30731312374951,179.83015242388723" style="fill:rgb(190,182,213);stroke:none;stroke-width:1" />
<polygon points="519.293606292867,166.54189897038808 419.08805231398867,101.77704470911021 239.82416423724203,-30.121663993204265" style="fill:rgb(190,182,213);stroke:none;stroke-width:1" />
<polygon points="578.7224462042025,289.98418971956653 553.6620871038909,173.33249535783895 520.1698475761127,-46.69268687625049" style="fill:rgb(190,182,213);stroke:none;stroke-width:1" />
<polygon points="533.458101029612,419.2936062928671 598.2229552908898,319.0880523139886 730.1216639932043,139.82416423724203" style="fill:rgb(190,182,213);stroke:none;stroke-width:1" />
<polygon points="656.7319602974947,584.4886560861718 452.65777653180373,472.30986469503534 495.1530029513184,570.8401820770616" style="fill:rgb(211,4,193);stroke:none;stroke-width:1" />
<polygon points="380.3730521844943,682.7007679628535 315.39319707664833,459.0761446590402 275.7704042726513,558.7962630016303" style="fill:rgb(211,4,193);stroke:none;stroke-width:1" />
<polygon points="115.51134391382823,556.7319602974947 227.69013530496466,352.65777653180373 129.15981792293837,395.1530029513184" style="fill:rgb(211,4,193);stroke:none;stroke-width:1" />
<polygon points="17.299232037146453,280.3730521844943 240.92385534095976,215.3931970766483 141.20373699836966,175.77040427265132" style="fill:rgb(211,4,193);stroke:none;stroke-width:1" />
<polygon points="143.2680397025053,15.511343913828284 347.34222346819627,127.69013530496466 304.8469970486816,29.159817922938373" style="fill:rgb(211,4,193);stroke:none;stroke-width:1" />
<polygon points="419.6269478155056,-82.7007679628536 484.60680292335167,140.92385534095973 524.2295957273486,41.20373699836966" style="fill:rgb(211,4,193);stroke:none;stroke-width:1" />
<polygon points="684.4886560861717,43.26803970250529 572.3098646950353,247.34222346819624 670.8401820770616,204.84699704868154" style="fill:rgb(211,4,193);stroke:none;stroke-width:1" />
<polygon points="782.7007679628535,319.62694781550556 559.0761446590402,384.60680292335167 658.7962630016303,424.2295957273486" style="fill:rgb(211,4,193);stroke:none;stroke-width:1" />
<polygon points="569.5839492058956,468.42390956783754 542.8776674383444,355.04860272717866 519.0749788798817,387.538358177997" style="fill:rgb(98,72,6);stroke:none;stroke-width:1" />
<polygon points="400.82027189451605,539.0076490332515 462.1045272425374,439.9550078090019 422.2997583540107,446.0976917172078" style="fill:rgb(98,72,6);stroke:none;stroke-width:1" />
<polygon points="231.57609043216246,469.5839492058956 344.95139727282134,442.87766743834436 312.461641822003,419.07497887988166" style="fill:rgb(98,72,6);stroke:none;stroke-width:1" />
<polygon points="160.99235096674846,300.82027189451605 260.0449921909981,362.1045272425374 253.9023082827922,322.2997583540107" style="fill:rgb(98,72,6);stroke:none;stroke-width:1" />
<polygon points="230.4160507941044,131.5760904321625 257.12233256165564,244.95139727282134 280.92502112011834,212.461641822003" style="fill:rgb(98,72,6);stroke:none;stroke-width:1" />
<polygon points="399.17972810548395,60.992350966748404 337.8954727574626,160.04499219099802 377.7002416459893,153.9023082827922" style="fill:rgb(98,72,6);stroke:none;stroke-width:1" />
<polygon points="568.4239095678375,130.4160507941044 455.0486027271786,157.12233256165564 487.538358177997,180.92502112011834" style="fill:rgb(98,72,6);stroke:none;stroke-width:1" />
<polygon points="639.0076490332516,299.17972810548395 539.9550078090019,237.89547275746258 546.0976917172078,277.70024164598925" style="fill:rgb(98,72,6);stroke:none;stroke-width:1" />
<polygon points="525.336235545805,434.7938482519139 621.3078449504715,516.7852947202184 515.9976862128634,364.31436394667656" style="fill:rgb(159,20,40);stroke:none;stroke-width:1" />
<polygon points="393.31245792167437,483.9397462439919 403.1979259360687,609.7786298524501 436.5456276486704,427.4998733974596" style="fill:rgb(159,20,40);stroke:none;stroke-width:1" />
<polygon points="265.2061517480861,425.33623554580504 183.21470527978158,521.3078449504715 335.68563605332344,415.9976862128634" style="fill:rgb(159,20,40);stroke:none;stroke-width:1" />
<polygon points="216.06025375600808,293.31245792167437 90.22137014754992,303.1979259360687 272.5001266025404,336.5456276486704" style="fill:rgb(159,20,40);stroke:none;stroke-width:1" />
<polygon points="274.66376445419496,165.2061517480861 178.6921550495285,83.21470527978161 284.0023137871366,235.68563605332344" style="fill:rgb(159,20,40);stroke:none;stroke-width:1" />
<polygon points="406.68754207832563,116.06025375600805 396.80207406393123,-9.778629852450138 363.4543723513296,172.50012660254038" style="fill:rgb(159,20,40);stroke:none;stroke-width:1" />
<polygon points="534.7938482519139,174.66376445419493 616.7852947202184,78.69215504952851 464.31436394667656,184.0023137871366" style="fill:rgb(159,20,40);stroke:none;stroke-width:1" />
<polygon points="583.939746243992,306.6875420783256 709.7786298524501,296.8020740639312 527.4998733974596,263.45437235132954" style="fill:rgb(159,20,40);stroke:none;stroke-width:1" />
<polygon points="527.6821655231877,323.0409954037531 404.78198282905873,483.3018096062653 425.80236298958147,501.68316473015443" style="fill:rgb(170,94,99);stroke:none;stroke-width:1" />
<polygon points="473.99248098274734,406.57736917331107 273.7674199095894,432.9953250623007 275.6334924087141,460.8565592724256" style="fill:rgb(170,94,99);stroke:none;stroke-width:1" />
<polygon points="376.9590045962469,427.6821655231877 216.6981903937347,304.78198282905873 198.31683526984557,325.80236298958147" style="fill:rgb(170,94,99);stroke:none;stroke-width:1" />
<polygon points="293.42263082668893,373.99248098274734 267.0046749376993,173.76741990958945 239.1434407275744,175.63349240871412" style="fill:rgb(170,94,99);stroke:none;stroke-width:1" />
<polygon points="272.3178344768123,276.9590045962469 395.21801717094127,116.6981903937347 374.19763701041853,98.31683526984557" style="fill:rgb(170,94,99);stroke:none;stroke-width:1" />
<polygon points="326.00751901725266,193.42263082668893 526.2325800904106,167.00467493769926 524.3665075912859,139.1434407275744" style="fill:rgb(170,94,99);stroke:none;stroke-width:1" />
<polygon points="423.0409954037531,172.31783447681232 583.3018096062654,295.2180171709412 601.6831647301544,274.1976370104185" style="fill:rgb(170,94,99);stroke:none;stroke-width:1" />
<polygon points="506.57736917331107,226.00751901725263 532.9953250623007,426.2325800904105 560.8565592724256,424.3665075912858" style="fill:rgb(170,94,99);stroke:none;stroke-width:1" />
<polygon points="750.6636459656187,392.72615389663787 788.3992800639368,329.89143448674264 717.3886961171479,440.5028034668009" style="fill:rgb(223,2,80);stroke:none;stroke-width:1" />
<polygon points="582.3893497642277,613.5239341915477 653.5033287162137,595.7762007661519 525.0772141892961,623.7781844034873" style="fill:rgb(223,2,80);stroke:none;stroke-width:1" />
<polygon points="307.2738461033622,650.6636459656187 370.10856551325736,688.3992800639368 259.49719653319914,617.3886961171479" style="fill:rgb(223,2,80);stroke:none;stroke-width:1" />
<polygon points="86.47606580845229,482.3893497642277 104.22379923384813,553.5033287162137 76.22181559651261,425.07721418929606" style="fill:rgb(223,2,80);stroke:none;stroke-width:1" />
<polygon points="49.336354034381316,207.2738461033622 11.600719936063228,270.1085655132574 82.6113038828521,159.49719653319912" style="fill:rgb(223,2,80);stroke:none;stroke-width:1" />
<polygon points="217.61065023577228,-13.52393419154771 146.49667128378638,4.223799233848126 274.9227858107039,-23.778184403487387" style="fill:rgb(223,2,80);stroke:none;stroke-width:1" />
<polygon points="492.7261538966378,-50.663645965618684 429.8914344867426,-88.39928006393677 540.5028034668009,-17.3886961171479" style="fill:rgb(223,2,80);stroke:none;stroke-width:1" />
<polygon points="713.5239341915477,117.61065023577225 695.7762007661518,46.496671283786384 723.7781844034873,174.92278581070389" style="fill:rgb(223,2,80);stroke:none;stroke-width:1" />
<polygon points="750.1873659575497,313.93680814762587 525.4711546528441,469.3454679148116 500.60177892253387,528.4876217061535" style="fill:rgb(62,226,152);stroke:none;stroke-width:1" />
<polygon points="637.7650496051564,557.4746727037207 368.97617557255995,508.4668330241043 309.5710533499459,532.7013468011613" style="fill:rgb(62,226,152);stroke:none;stroke-width:1" />
<polygon points="386.06319185237413,650.1873659575497 230.6545320851884,425.4711546528441 171.5123782938465,400.60177892253387" style="fill:rgb(62,226,152);stroke:none;stroke-width:1" />
<polygon points="142.52532729627933,537.7650496051564 191.5331669758957,268.97617557255995 167.29865319883868,209.57105334994588" style="fill:rgb(62,226,152);stroke:none;stroke-width:1" />
<polygon points="49.81263404245033,286.0631918523742 274.5288453471559,130.65453208518844 299.39822107746613,71.5123782938465" style="fill:rgb(62,226,152);stroke:none;stroke-width:1" />
<polygon points="162.2349503948436,42.52532729627933 431.02382442744005,91.53316697589568 490.4289466500541,67.29865319883865" style="fill:rgb(62,226,152);stroke:none;stroke-width:1" />
<polygon points="413.9368081476258,-50.18736595754967 569.3454679148116,174.52884534715585 628.4876217061535,199.39822107746608" style="fill:rgb(62,226,152);stroke:none;stroke-width:1" />
<polygon points="657.4746727037207,62.234950394843594 608.4668330241043,331.02382442744 632.7013468011613,390.42894665005406" style="fill:rgb(62,226,152);stroke:none;stroke-width:1" />
<polygon points="767.9481681235961,315.34034559425265 654.3509145225313,534.7711723008944 660.7651470762869,481.13548858983086" style="fill:rgb(189,88,148);stroke:none;stroke-width:1" />
<polygon points="649.3313824099215,571.0259072008039 413.84496849880406,645.8615444209595 456.306671499342,612.4709360901578" style="fill:rgb(189,88,148);stroke:none;stroke-width:1" />
<polygon points="384.65965440574735,667.9481681235961 165.22882769910566,554.3509145225313 218.86451141016917,560.7651470762869" style="fill:rgb(189,88,148);stroke:none;stroke-width:1" />
<polygon points="128.97409279919606,549.3313824099215 54.13845557904045,313.84496849880406 87.5290639098422,356.306671499342" style="fill:rgb(189,88,148);stroke:none;stroke-width:1" />
<polygon points="32.05183187640387,284.6596544057474 145.64908547746867,65.22882769910566 139.2348529237131,118.86451141016917" style="fill:rgb(189,88,148);stroke:none;stroke-width:1" />
<polygon points="150.66861759007847,28.974092799196058 386.15503150119594,-45.8615444209596 343.69332850065797,-12.470936090157807" style="fill:rgb(189,88,148);stroke:none;stroke-width:1" />
<polygon points="415.3403455942526,-67.94816812359613 634.7711723008942,45.649085477468645 581.1354885898309,39.23485292371305" style="fill:rgb(189,88,148);stroke:none;stroke-width:1" />
<polygon points="671.0259072008039,50.66861759007847 745.8615444209595,286.1550315011959 712.4709360901578,243.69332850065794" style="fill:rgb(189,88,148);stroke:none;stroke-width:1" />
<polygon points="629.5068269152645,308.8794978069769 452.1756163582038,499.68983029522946 756.2358329313083,333.0186891122748" style="fill:rgb(252,79,149);stroke:none;stroke-width:1" />
<polygon points="556.0070805275463,468.5645867532352 295.69169900372606,478.0957652752213 628.5490341901863,575.244512144546" style="fill:rgb(252,79,149);stroke:none;stroke-width:1" />
<polygon points="391.1205021930231,529.5068269152645 200.31016970477054,352.1756163582038 366.9813108877252,656.2358329313083" style="fill:rgb(252,79,149);stroke:none;stroke-width:1" />
<polygon points="231.43541324676485,456.00708052754635 221.90423472477872,195.69169900372606 124.75548785545396,528.5490341901863" style="fill:rgb(252,79,149);stroke:none;stroke-width:1" />
<polygon points="170.49317308473553,291.1205021930232 347.8243836417962,100.31016970477054 43.76416706869168,266.9813108877253" style="fill:rgb(252,79,149);stroke:none;stroke-width:1" />
<polygon points="243.99291947245362,131.43541324676485 504.30830099627394,121.90423472477869 171.4509658098137,24.755487855453964" style="fill:rgb(252,79,149);stroke:none;stroke-width:1" />
<polygon points="408.8794978069768,70.49317308473553 599.6898302952295,247.82438364179617 433.0186891122747,-56.23583293130832" style="fill:rgb(252,79,149);stroke:none;stroke-width:1" />
<polygon points="568.5645867532351,143.99291947245362 578.0957652752213,404.30830099627394 675.244512144546,71.45096580981371" style="fill:rgb(252,79,149);stroke:none;stroke-width:1" />
<polygon points="518.866923582698,529.3854951784734 525.0791831573565,509.18311766748513 556.3857671207257,350.07664912240153" style="fill:rgb(187,198,3);stroke:none;stroke-width:1" />
<polygon points="321.85156857757624,546.2516468706415 340.5295375834188,536.3591396082631 475.1718982385759,445.99097458567485" style="fill:rgb(187,198,3);stroke:none;stroke-width:1" />
<polygon points="170.61450482152657,418.86692358269795 190.81688233251487,425.0791831573565 349.92335087759847,456.38576712072575" style="fill:rgb(187,198,3);stroke:none;stroke-width:1" />
<polygon points="153.74835312935846,221.85156857757624 163.6408603917368,240.52953758341877 254.00902541432512,375.1718982385759" style="fill:rgb(187,198,3);stroke:none;stroke-width:1" />
<polygon points="281.13307641730205,70.6145048215266 274.9208168426435,90.8168823325149 243.61423287927425,249.9233508775985" style="fill:rgb(187,198,3);stroke:none;stroke-width:1" />
<polygon points="478.14843142242376,53.748353129358435 459.4704624165812,63.64086039173674 324.8281017614241,154.0090254143251" style="fill:rgb(187,198,3);stroke:none;stroke-width:1" />
<polygon points="629.3854951784734,181.133076417302 609.1831176674851,174.92081684264343 450.0766491224015,143.61423287927425" style="fill:rgb(187,198,3);stroke:none;stroke-width:1" />
<polygon points="646.2516468706415,378.14843142242376 636.3591396082633,359.4704624165812 545.9909745856748,224.82810176142408" style="fill:rgb(187,198,3);stroke:none;stroke-width:1" />
<polygon points="500.59942116974145,311.7047768698967 501.79367601761714,353.30026534506925 783.6066718066824,594.4426144675481" style="fill:rgb(176,1,177);stroke:none;stroke-width:1" />
<polygon points="462.8580057955863,379.4110599895451 434.2900195294227,409.6679776585043 463.048509582608,779.453248303207" style="fill:rgb(176,1,177);stroke:none;stroke-width:1" />
<polygon points="388.2952231301033,400.59942116974145 346.69973465493075,401.79367601761714 105.55738553245192,683.6066718066824" style="fill:rgb(176,1,177);stroke:none;stroke-width:1" />
<polygon points="320.5889400104549,362.8580057955863 290.3320223414957,334.2900195294227 -79.45324830320703,363.048509582608" style="fill:rgb(176,1,177);stroke:none;stroke-width:1" />
<polygon points="299.40057883025855,288.2952231301033 298.20632398238286,246.69973465493075 16.393328193317586,5.557385532451974" style="fill:rgb(176,1,177);stroke:none;stroke-width:1" />
<polygon points="337.14199420441366,220.58894001045488 365.70998047057725,190.33202234149567 336.95149041739194,-179.45324830320703" style="fill:rgb(176,1,177);stroke:none;stroke-width:1" />
<polygon points="411.7047768698967,199.40057883025855 453.30026534506925,198.20632398238286 694.4426144675481,-83.60667180668241" style="fill:rgb(176,1,177);stroke:none;stroke-width:1" />
<polygon points="479.4110599895451,237.1419942044137 509.6679776585043,265.70998047057725 879.4532483032069,236.9514904173919" style="fill:rgb(176,1,177);stroke:none;stroke-width:1" />
<polygon points="664.0844325931096,572.3044674483367 736.6635655834154,433.8697157359645 486.0821673812265,324.8284475771645" style="fill:rgb(80,196,5);stroke:none;stroke-width:1" />
<polygon points="394.18755761227914,679.2842285724998 543.396906410059,632.717273994891 443.31292064635295,378.4256479426484" style="fill:rgb(80,196,5);stroke:none;stroke-width:1" />
<polygon points="127.69553255166329,564.0844325931096 266.1302842640355,636.6635655834154 375.1715524228355,386.0821673812265" style="fill:rgb(80,196,5);stroke:none;stroke-width:1" />
<polygon points="20.715771427500158,294.18755761227914 67.282726005109,443.39690641005905 321.5743520573516,343.31292064635295" style="fill:rgb(80,196,5);stroke:none;stroke-width:1" />
<polygon points="135.91556740689037,27.695532551663348 63.33643441658455,166.1302842640355 313.9178326187735,275.1715524228355" style="fill:rgb(80,196,5);stroke:none;stroke-width:1" />
<polygon points="405.8124423877208,-79.28422857249984 256.6030935899409,-32.717273994891 356.68707935364705,221.57435205735158" style="fill:rgb(80,196,5);stroke:none;stroke-width:1" />
<polygon points="672.3044674483367,35.915567406890375 533.8697157359645,-36.66356558341545 424.8284475771645,213.9178326187735" style="fill:rgb(80,196,5);stroke:none;stroke-width:1" />
<polygon points="779.2842285724998,305.8124423877208 732.717273994891,156.6030935899409 478.4256479426484,256.68707935364705" style="fill:rgb(80,196,5);stroke:none;stroke-width:1" />
<polygon points="457.1065845325693,513.7157692294704 760.5905157637211,372.8707641055008 568.2220107661793,570.3543661523602" style="fill:rgb(247,173,108);stroke:none;stroke-width:1" />
<polygon points="289.26058350472476,491.50032284204036 603.448587478837,606.5034103773266 327.78151892787713,610.1203301873265" style="fill:rgb(247,173,108);stroke:none;stroke-width:1" />
<polygon points="186.28423077052958,357.1065845325693 327.1292358944992,660.5905157637211 129.64563384763983,468.2220107661793" style="fill:rgb(247,173,108);stroke:none;stroke-width:1" />
<polygon points="208.49967715795964,189.26058350472474 93.4965896226733,503.448587478837 89.87966981267351,227.78151892787713" style="fill:rgb(247,173,108);stroke:none;stroke-width:1" />
<polygon points="342.8934154674307,86.28423077052958 39.4094842362789,227.12923589449923 231.77798923382065,29.64563384763983" style="fill:rgb(247,173,108);stroke:none;stroke-width:1" />
<polygon points="510.73941649527524,108.49967715795958 196.55141252116297,-6.503410377326759 472.2184810721228,-10.120330187326545" style="fill:rgb(247,173,108);stroke:none;stroke-width:1" />
<polygon points="613.7157692294704,242.89341546743066 472.87076410550077,-60.5905157637211 670.3543661523602,131.77798923382062" style="fill:rgb(247,173,108);stroke:none;stroke-width:1" />
<polygon points="591.5003228420404,410.73941649527524 706.5034103773266,96.55141252116297 710.1203301873265,372.2184810721228" style="fill:rgb(247,173,108);stroke:none;stroke-width:1" />
<polygon points="571.4797129524086,351.43057024534403 474.3976287532968,379.4162357723129 437.54271625033346,401.6891913175635" style="fill:rgb(164,95,116);stroke:none;stroke-width:1" />
<polygon points="484.88756288379693,457.6213728453446 396.4513089447433,408.76282664656753 354.6415924907478,398.45182599879854" style="fill:rgb(164,95,116);stroke:none;stroke-width:1" />
<polygon points="348.56942975465597,471.4797129524086 320.5837642276871,374.3976287532968 298.3108086824365,337.54271625033346" style="fill:rgb(164,95,116);stroke:none;stroke-width:1" />
<polygon points="242.3786271546554,384.88756288379693 291.23717335343247,296.4513089447433 301.54817400120146,254.64159249074785" style="fill:rgb(164,95,116);stroke:none;stroke-width:1" />
<polygon points="228.5202870475914,248.569429754656 325.6023712467032,220.58376422768708 362.45728374966654,198.31080868243652" style="fill:rgb(164,95,116);stroke:none;stroke-width:1" />
<polygon points="315.11243711620307,142.3786271546554 403.5486910552567,191.23717335343244 445.3584075092522,201.54817400120146" style="fill:rgb(164,95,116);stroke:none;stroke-width:1" />
<polygon points="451.43057024534403,128.5202870475914 479.4162357723129,225.60237124670323 501.6891913175635,262.45728374966654" style="fill:rgb(164,95,116);stroke:none;stroke-width:1" />
<polygon points="557.6213728453446,215.11243711620304 508.76282664656753,303.5486910552567 498.45182599879854,345.3584075092521" style="fill:rgb(164,95,116);stroke:none;stroke-width:1" />
<polygon points="724.2240446249843,437.97358971631144 654.4378823509004,379.1085188078525 407.46066312592245,508.9319030829214" style="fill:rgb(86,211,141);stroke:none;stroke-width:1" />
<polygon points="531.6989596650019,626.8230814911105 523.9765819024107,535.8529220997227 257.53832001234395,453.0126509646325" style="fill:rgb(86,211,141);stroke:none;stroke-width:1" />
<polygon points="262.0264102836886,624.2240446249843 320.8914811921475,554.4378823509004 191.0680969170786,307.46066312592245" style="fill:rgb(86,211,141);stroke:none;stroke-width:1" />
<polygon points="73.17691850888946,431.69895966500195 164.14707790027734,423.97658190241066 246.98734903536754,157.53832001234395" style="fill:rgb(86,211,141);stroke:none;stroke-width:1" />
<polygon points="75.77595537501566,162.0264102836886 145.5621176490996,220.89148119214755 392.53933687407755,91.0680969170786" style="fill:rgb(86,211,141);stroke:none;stroke-width:1" />
<polygon points="268.30104033499805,-26.823081491110543 276.02341809758934,64.14707790027734 542.461679987656,146.98734903536752" style="fill:rgb(86,211,141);stroke:none;stroke-width:1" />
<polygon points="537.9735897163114,-24.224044624984344 479.1085188078524,45.56211764909958 608.9319030829214,292.5393368740775" style="fill:rgb(86,211,141);stroke:none;stroke-width:1" />
<polygon points="726.8230814911105,168.30104033499802 635.8529220997226,176.0234180975893 553.0126509646325,442.461679987656" style="fill:rgb(86,211,141);stroke:none;stroke-width:1" />
<polygon points="515.130641282196,538.4730388378605 701.2460329387854,589.2134619311005 436.6381852950295,314.57354956059754" style="fill:rgb(54,220,17);stroke:none;stroke-width:1" />
<polygon points="312.7837542805827,550.0355600654108 408.5083125546427,717.5179128384798 415.60205355222786,336.21216499274135" style="fill:rgb(54,220,17);stroke:none;stroke-width:1" />
<polygon points="161.52696116213951,415.13064128219605 110.78653806889952,601.2460329387854 385.42645043940246,336.6381852950295" style="fill:rgb(54,220,17);stroke:none;stroke-width:1" />
<polygon points="149.96443993458922,212.78375428058266 -17.517912838479788,308.5083125546427 363.78783500725865,315.60205355222786" style="fill:rgb(54,220,17);stroke:none;stroke-width:1" />
<polygon points="284.86935871780395,61.526961162139514 98.7539670612145,10.786538068899574 363.3618147049705,285.42645043940246" style="fill:rgb(54,220,17);stroke:none;stroke-width:1" />
<polygon points="487.2162457194173,49.96443993458922 391.49168744535723,-117.51791283847979 384.39794644777214,263.78783500725865" style="fill:rgb(54,220,17);stroke:none;stroke-width:1" />
<polygon points="638.4730388378605,184.8693587178039 689.2134619311005,-1.246032938785504 414.57354956059754,263.3618147049705" style="fill:rgb(54,220,17);stroke:none;stroke-width:1" />
<polygon points="650.0355600654108,387.2162457194173 817.5179128384798,291.49168744535723 436.21216499274135,284.39794644777214" style="fill:rgb(54,220,17);stroke:none;stroke-width:1" />
<polygon points="667.3892361298504,403.9823737871951 649.6285559556366,435.9055134472226 543.5626957874565,484.9297614049989" style="fill:rgb(151,171,181);stroke:none;stroke-width:1" />
<polygon points="515.5461004549082,562.5993837125081 480.4143345348656,572.6137548532067 370.74906738404695,532.2792440494169" style="fill:rgb(151,171,181);stroke:none;stroke-width:1" />
<polygon points="296.0176262128049,567.3892361298504 264.0944865527774,549.6285559556366 215.07023859500111,443.5626957874565" style="fill:rgb(151,171,181);stroke:none;stroke-width:1" />
<polygon points="137.40061628749186,415.54610045490824 127.38624514679327,380.4143345348656 167.7207559505831,270.74906738404695" style="fill:rgb(151,171,181);stroke:none;stroke-width:1" />
<polygon points="132.61076387014964,196.0176262128049 150.37144404436341,164.09448655277745 256.4373042125435,115.07023859500114" style="fill:rgb(151,171,181);stroke:none;stroke-width:1" />
<polygon points="284.45389954509176,37.40061628749186 319.5856654651344,27.38624514679327 429.25093261595305,67.72075595058308" style="fill:rgb(151,171,181);stroke:none;stroke-width:1" />
<polygon points="503.98237378719506,32.61076387014964 535.9055134472226,50.371444044363415 584.9297614049989,156.43730421254347" style="fill:rgb(151,171,181);stroke:none;stroke-width:1" />
<polygon points="662.5993837125081,184.45389954509173 672.6137548532067,219.5856654651344 632.2792440494169,329.25093261595305" style="fill:rgb(151,171,181);stroke:none;stroke-width:1" />
<polygon points="712.0403052031546,483.6904521737856 750.84330766003,439.65665414000694 692.3966246193988,570.8624056558048" style="fill:rgb(91,125,253);stroke:none;stroke-width:1" />
<polygon points="490.7570514413636,650.5345801839776 549.3315148001022,646.8358491605486 415.22699225671334,698.2842798721554" style="fill:rgb(91,125,253);stroke:none;stroke-width:1" />
<polygon points="216.3095478262144,612.0403052031546 260.34334585999306,650.84330766003 129.13759434419524,592.3966246193988" style="fill:rgb(91,125,253);stroke:none;stroke-width:1" />
<polygon points="49.465419816022404,390.7570514413636 53.164150839451395,449.3315148001022 1.7157201278446337,315.22699225671334" style="fill:rgb(91,125,253);stroke:none;stroke-width:1" />
<polygon points="87.95969479684538,116.30954782621441 49.15669233997005,160.34334585999312 107.60337538060111,29.137594344195293" style="fill:rgb(91,125,253);stroke:none;stroke-width:1" />
<polygon points="309.2429485586364,-50.534580183977596 250.66848519989782,-46.835849160548605 384.7730077432866,-98.28427987215537" style="fill:rgb(91,125,253);stroke:none;stroke-width:1" />
<polygon points="583.6904521737856,-12.040305203154674 539.6566541400068,-50.84330766002995 670.8624056558047,7.603375380601108" style="fill:rgb(91,125,253);stroke:none;stroke-width:1" />
<polygon points="750.5345801839775,209.24294855863636 746.8358491605486,150.6684851998978 798.2842798721554,284.7730077432866" style="fill:rgb(91,125,253);stroke:none;stroke-width:1" />
<polygon points="517.4199079562476,523.5696908967519 652.0661522750535,398.2066002386205 402.54470262687573,399.70156686965913" style="fill:rgb(112,58,248);stroke:none;stroke-width:1" />
<polygon points="324.9407686612893,541.1160576630366 508.7951325952862,547.6802385672961 331.29972245510703,372.29903051202706" style="fill:rgb(112,58,248);stroke:none;stroke-width:1" />
<polygon points="176.43030910324808,417.4199079562476 301.7933997613795,552.0661522750535 300.29843313034087,302.54470262687573" style="fill:rgb(112,58,248);stroke:none;stroke-width:1" />
<polygon points="158.88394233696346,224.94076866128933 152.31976143270384,408.7951325952862 327.70096948797294,231.29972245510706" style="fill:rgb(112,58,248);stroke:none;stroke-width:1" />
<polygon points="282.5800920437524,76.4303091032481 147.93384772494653,201.7933997613795 397.45529737312427,200.29843313034087" style="fill:rgb(112,58,248);stroke:none;stroke-width:1" />
<polygon points="475.0592313387107,58.88394233696343 291.20486740471375,52.31976143270384 468.70027754489297,227.70096948797294" style="fill:rgb(112,58,248);stroke:none;stroke-width:1" />
<polygon points="623.5696908967519,182.58009204375236 498.20660023862047,47.9338477249465 499.70156686965913,297.45529737312427" style="fill:rgb(112,58,248);stroke:none;stroke-width:1" />
<polygon points="641.1160576630366,375.0592313387107 647.6802385672961,191.20486740471375 472.29903051202706,368.7002775448929" style="fill:rgb(112,58,248);stroke:none;stroke-width:1" />
<polygon points="702.8966830841329,413.4250849932122 458.14498355006833,345.46172969619744 440.0896541644621,543.4910968359129" style="fill:rgb(254,196,130);stroke:none;stroke-width:1" />
<polygon points="533.9766518523421,594.3839453630637 408.9684148075825,373.26100951288464 256.17346058389035,500.521872046339" style="fill:rgb(254,196,130);stroke:none;stroke-width:1" />
<polygon points="286.5749150067878,602.8966830841329 354.53827030380256,358.14498355006833 156.5089031640871,340.0896541644621" style="fill:rgb(254,196,130);stroke:none;stroke-width:1" />
<polygon points="105.61605463693621,433.9766518523421 326.73899048711536,308.9684148075825 199.478127953661,156.17346058389037" style="fill:rgb(254,196,130);stroke:none;stroke-width:1" />
<polygon points="97.10331691586714,186.57491500678788 341.85501644993167,254.53827030380256 359.9103458355379,56.50890316408709" style="fill:rgb(254,196,130);stroke:none;stroke-width:1" />
<polygon points="266.0233481476578,5.6160546369361555 391.0315851924175,226.73899048711536 543.8265394161097,99.47812795366099" style="fill:rgb(254,196,130);stroke:none;stroke-width:1" />
<polygon points="513.4250849932121,-2.89668308413286 445.46172969619744,241.85501644993167 643.4910968359129,259.91034583553784" style="fill:rgb(254,196,130);stroke:none;stroke-width:1" />
<polygon points="694.3839453630637,166.02334814765783 473.26100951288464,291.0315851924175 600.521872046339,443.8265394161096" style="fill:rgb(254,196,130);stroke:none;stroke-width:1" />
<polygon points="462.2439567378019,516.5644149741026 763.1781345196121,579.1614870464748 550.3194877703212,376.90904288522904" style="fill:rgb(0,47,204);stroke:none;stroke-width:1" />
<polygon points="290.8789575052964,497.1472902890673 459.408741160815,754.2027022341807 451.90902338817,460.6748349055948" style="fill:rgb(0,47,204);stroke:none;stroke-width:1" />
<polygon points="183.43558502589735,362.2439567378019 120.8385129535252,663.1781345196121 323.09095711477096,450.3194877703212" style="fill:rgb(0,47,204);stroke:none;stroke-width:1" />
<polygon points="202.8527097109327,190.87895750529637 -54.20270223418072,359.408741160815 239.32516509440515,351.90902338817" style="fill:rgb(0,47,204);stroke:none;stroke-width:1" />
<polygon points="337.7560432621981,83.43558502589735 36.821865480387885,20.838512953525253 249.6805122296788,223.09095711477096" style="fill:rgb(0,47,204);stroke:none;stroke-width:1" />
<polygon points="509.1210424947036,102.85270971093266 340.59125883918495,-154.20270223418072 348.09097661183,139.32516509440515" style="fill:rgb(0,47,204);stroke:none;stroke-width:1" />
<polygon points="616.5644149741026,237.75604326219803 679.1614870464748,-63.178134519612115 476.90904288522904,149.6805122296788" style="fill:rgb(0,47,204);stroke:none;stroke-width:1" />
<polygon points="597.1472902890673,409.1210424947036 854.2027022341807,240.59125883918492 560.6748349055948,248.09097661183" style="fill:rgb(0,47,204);stroke:none;stroke-width:1" />
<polygon points="629.7461973095217,481.3984603944472 468.1640659255047,500.0268505321486 467.64387032684107,561.6916490311488" style="fill:rgb(133,183,185);stroke:none;stroke-width:1" />
<polygon points="434.18701262767235,590.7231755110984 306.75893081850097,489.63961567984154 262.7874998039975,532.8753790236282" style="fill:rgb(133,183,185);stroke:none;stroke-width:1" />
<polygon points="218.60153960555277,529.7461973095217 199.97314946785139,368.1640659255047 138.3083509688512,367.64387032684107" style="fill:rgb(133,183,185);stroke:none;stroke-width:1" />
<polygon points="109.2768244889017,334.18701262767235 210.3603843201585,206.758930818501 167.12462097637186,162.7874998039975" style="fill:rgb(133,183,185);stroke:none;stroke-width:1" />
<polygon points="170.2538026904783,118.6015396055528 331.8359340744953,99.97314946785139 332.3561296731589,38.30835096885119" style="fill:rgb(133,183,185);stroke:none;stroke-width:1" />
<polygon points="365.8129873723276,9.276824488901639 493.24106918149903,110.36038432015846 537.2125001960026,67.12462097637183" style="fill:rgb(133,183,185);stroke:none;stroke-width:1" />
<polygon points="581.3984603944472,70.2538026904783 600.0268505321486,231.83593407449524 661.6916490311488,232.35612967315888" style="fill:rgb(133,183,185);stroke:none;stroke-width:1" />
<polygon points="690.7231755110984,265.8129873723276 589.6396156798415,393.241069181499 632.8753790236282,437.21250019600245" style="fill:rgb(133,183,185);stroke:none;stroke-width:1" />
<polygon points="617.530948642785,321.8592686056442 695.0898401169877,440.5972537837531 464.71451898566517,384.3648883460237" style="fill:rgb(10,212,21);stroke:none;stroke-width:1" />
<polygon points="538.3607718404267,469.27444596608507 509.2427554392783,608.077298572674 386.10509057247015,405.4150598595087" style="fill:rgb(10,212,21);stroke:none;stroke-width:1" />
<polygon points="378.1407313943558,517.530948642785 259.4027462162469,595.0898401169877 315.6351116539763,364.71451898566517" style="fill:rgb(10,212,21);stroke:none;stroke-width:1" />
<polygon points="230.7255540339149,438.36077184042665 91.9227014273261,409.2427554392783 294.5849401404913,286.10509057247015" style="fill:rgb(10,212,21);stroke:none;stroke-width:1" />
<polygon points="182.469051357215,278.1407313943558 104.91015988301228,159.40274621624692 335.28548101433483,215.6351116539763" style="fill:rgb(10,212,21);stroke:none;stroke-width:1" />
<polygon points="261.63922815957335,130.7255540339149 290.75724456072163,-8.077298572673953 413.89490942752985,194.58494014049128" style="fill:rgb(10,212,21);stroke:none;stroke-width:1" />
<polygon points="421.85926860564416,82.469051357215 540.5972537837531,4.910159883012284 484.3648883460237,235.28548101433483" style="fill:rgb(10,212,21);stroke:none;stroke-width:1" />
<polygon points="569.2744459660851,161.63922815957332 708.077298572674,190.75724456072163 505.4150598595087,313.89490942752985" style="fill:rgb(10,212,21);stroke:none;stroke-width:1" />
<polygon points="637.6836349019316,557.0620820563711 545.9206981657949,318.10374870558354 706.9294249439467,524.2464673245541" style="fill:rgb(95,217,55);stroke:none;stroke-width:1" />
<polygon points="386.29736860823067,649.838051424216 490.38023171389364,415.98279866312424 458.4656800212324,675.598075425872" style="fill:rgb(95,217,55);stroke:none;stroke-width:1" />
<polygon points="142.93791794362892,537.6836349019316 381.89625129441646,445.9206981657949 175.75353267544588,606.9294249439467" style="fill:rgb(95,217,55);stroke:none;stroke-width:1" />
<polygon points="50.161948575783924,286.29736860823067 284.01720133687576,390.38023171389364 24.401924574127975,358.4656800212324" style="fill:rgb(95,217,55);stroke:none;stroke-width:1" />
<polygon points="162.31636509806842,42.937917943628975 254.07930183420513,281.89625129441646 93.07057505605326,75.75353267544588" style="fill:rgb(95,217,55);stroke:none;stroke-width:1" />
<polygon points="413.7026313917693,-49.83805142421613 309.6197682861063,184.01720133687576 341.5343199787675,-75.59807542587203" style="fill:rgb(95,217,55);stroke:none;stroke-width:1" />
<polygon points="657.0620820563711,62.31636509806839 418.1037487055835,154.07930183420513 624.246467324554,-6.929424943946799" style="fill:rgb(95,217,55);stroke:none;stroke-width:1" />
<polygon points="749.838051424216,313.7026313917693 515.9827986631242,209.6197682861063 775.5980754258719,241.53431997876748" style="fill:rgb(95,217,55);stroke:none;stroke-width:1" />
<polygon points="785.9232418372834,368.55868768822785 795.8136633833135,557.0044676967357 690.818055604632,539.1266651236913" style="fill:rgb(179,164,141);stroke:none;stroke-width:1" />
<polygon points="624.4106283470425,621.3672542942356 498.1529235610297,761.6121273682312 436.551332738035,674.7275056810086" style="fill:rgb(179,164,141);stroke:none;stroke-width:1" />
<polygon points="331.4413123117722,685.9232418372834 142.99553230326433,695.8136633833135 160.87333487630875,590.818055604632" style="fill:rgb(179,164,141);stroke:none;stroke-width:1" />
<polygon points="78.63274570576442,524.4106283470425 -61.6121273682312,398.1529235610297 25.27249431899145,336.551332738035" style="fill:rgb(179,164,141);stroke:none;stroke-width:1" />
<polygon points="14.076758162716601,231.4413123117722 4.186336616686447,42.99553230326438 109.1819443953679,60.873334876308746" style="fill:rgb(179,164,141);stroke:none;stroke-width:1" />
<polygon points="175.58937165295754,-21.36725429423558 301.8470764389703,-161.61212736823126 363.44866726196494,-74.72750568100855" style="fill:rgb(179,164,141);stroke:none;stroke-width:1" />
<polygon points="468.5586876882278,-85.9232418372834 657.0044676967357,-95.81366338331355 639.1266651236913,9.181944395367907" style="fill:rgb(179,164,141);stroke:none;stroke-width:1" />
<polygon points="721.3672542942355,75.58937165295751 861.6121273682312,201.84707643897028 774.7275056810086,263.44866726196494" style="fill:rgb(179,164,141);stroke:none;stroke-width:1" />
</g>
</svg>
