<svg width='610' height='610'>
<rect x="0" y="0" width="610" height="610" fill="red" stroke="none"/>
<rect x="5" y="5" width="75" height="75" fill="black" stroke="none"/>
<rect x="5" y="80" width="75" height="75" fill="white" stroke="none"/>
<rect x="5" y="155" width="75" height="75" fill="black" stroke="none"/>
<rect x="5" y="230" width="75" height="75" fill="white" stroke="none"/>
<rect x="5" y="305" width="75" height="75" fill="black" stroke="none"/>
<rect x="5" y="380" width="75" height="75" fill="white" stroke="none"/>
<rect x="5" y="455" width="75" height="75" fill="black" stroke="none"/>
<rect x="5" y="530" width="75" height="75" fill="white" stroke="none"/>
<rect x="80" y="5" width="75" height="75" fill="white" stroke="none"/>
<rect x="80" y="80" width="75" height="75" fill="black" stroke="none"/>
<rect x="80" y="155" width="75" height="75" fill="white" stroke="none"/>
<rect x="80" y="230" width="75" height="75" fill="black" stroke="none"/>
<rect x="80" y="305" width="75" height="75" fill="white" stroke="none"/>
<rect x="80" y="380" width="75" height="75" fill="black" stroke="none"/>
<rect x="80" y="455" width="75" height="75" fill="white" stroke="none"/>
<rect x="80" y="530" width="75" height="75" fill="black" stroke="none"/>
<rect x="155" y="5" width="75" height="75" fill="black" stroke="none"/>
<rect x="155" y="80" width="75" height="75" fill="white" stroke="none"/>
<rect x="155" y="155" width="75" height="75" fill="black" stroke="none"/>
<rect x="155" y="230" width="75" height="75" fill="white" stroke="none"/>
<rect x="155" y="305" width="75" height="75" fill="black" stroke="none"/>
<rect x="155" y="380" width="75" height="75" fill="white" stroke="none"/>
<rect x="155" y="455" width="75" height="75" fill="black" stroke="none"/>
<rect x="155" y="530" width="75" height="75" fill="white" stroke="none"/>
<rect x="230" y="5" width="75" height="75" fill="white" stroke="none"/>
<rect x="230" y="80" width="75" height="75" fill="black" stroke="none"/>
<rect x="230" y="155" width="75" height="75" fill="white" stroke="none"/>
<rect x="230" y="230" width="75" height="75" fill="black" stroke="none"/>
<rect x="230" y="305" width="75" height="75" fill="white" stroke="none"/>
<rect x="230" y="380" width="75" height="75" fill="black" stroke="none"/>
<rect x="230" y="455" width="75" height="75" fill="white" stroke="none"/>
<rect x="230" y="530" width="75" height="75" fill="black" stroke="none"/>
<rect x="305" y="5" width="75" height="75" fill="black" stroke="none"/>
<rect x="305" y="80" width="75" height="75" fill="white" stroke="none"/>
<rect x="305" y="155" width="75" height="75" fill="black" stroke="none"/>
<rect x="305" y="230" width="75" height="75" fill="white" stroke="none"/>
<rect x="305" y="305" width="75" height="75" fill="black" stroke="none"/>
<rect x="305" y="380" width="75" height="75" fill="white" stroke="none"/>
<rect x="305" y="455" width="75" height="75" fill="black" stroke="none"/>
<rect x="305" y="530" width="75" height="75" fill="white" stroke="none"/>
<rect x="380" y="5" width="75" height="75" fill="white" stroke="none"/>
<rect x="380" y="80" width="75" height="75" fill="black" stroke="none"/>
<rect x="380" y="155" width="75" height="75" fill="white" stroke="none"/>
<rect x="380" y="230" width="75" height="75" fill="black" stroke="none"/>
<rect x="380" y="305" width="75" height="75" fill="white" stroke="none"/>
<rect x="380" y="380" width="75" height="75" fill="black" stroke="none"/>
<rect x="380" y="455" width="75" height="75" fill="white" stroke="none"/>
<rect x="380" y="530" width="75" height="75" fill="black" stroke="none"/>
<rect x="455" y="5" width="75" height="75" fill="black" stroke="none"/>
<rect x="455" y="80" width="75" height="75" fill="white" stroke="none"/>
<rect x="455" y="155" width="75" height="75" fill="black" stroke="none"/>
<rect x="455" y="230" width="75" height="75" fill="white" stroke="none"/>
<rect x="455" y="305" width="75" height="75" fill="black" stroke="none"/>
<rect x="455" y="380" width="75" height="75" fill="white" stroke="none"/>
<rect x="455" y="455" width="75" height="75" fill="black" stroke="none"/>
<rect x="455" y="530" width="75" height="75" fill="white" stroke="none"/>
<rect x="530" y="5" width="75" height="75" fill="white" stroke="none"/>
<rect x="530" y="80" width="75" height="75" fill="black" stroke="none"/>
<rect x="530" y="155" width="75" height="75" fill="white" stroke="none"/>
<rect x="530" y="230" width="75" height="75" fill="black" stroke="none"/>
<rect x="530" y="305" width="75" height="75" fill="white" stroke="none"/>
<rect x="530" y="380" width="75" height="75" fill="black" stroke="none"/>
<rect x="530" y="455" width="75" height="75" fill="white" stroke="none"/>
<rect x="530" y="530" width="75" height="75" fill="black" stroke="none"/>
</svg>
